<?xml version="1.0" encoding="UTF-8"?>
<svg xmlns="http://www.w3.org/2000/svg" xmlns:xlink="http://www.w3.org/1999/xlink" width="249" height="72" viewBox="0 0 249 72">
  <defs>
    <path id="a" d="M.50712804.13006097H12.2093228V11.3872863H.50712804z"/>
    <path id="c" d="M2.57652432.76390242c-.47579267.0559756-.85774388.13170731-1.15079265.22719512-.29469511.0954878-.50378048.21567072-.62890242.37042681-.12182927.15146341-.18439024.32268292-.18439024.51036584V36.7035356c0 .1893293.06256097.3589024.18439024.5103659.12512194.1564024.32762194.274939.61079266.3753658.28975609.0938415.67335364.1679268 1.15573168.2239024.48402438.057622 1.08987802.0872561 1.81097556.0872561.74085364 0 1.35329265-.0296341 1.82579264-.0872561.47579267-.0559756.85445119-.1300609 1.1409146-.2239024.28152438-.1004268.4889634-.2189634.61079267-.3753658.1234756-.1514635.18439024-.3210366.18439024-.5103659V1.87189019c0-.18768292-.06091464-.35890243-.18439024-.51036584-.12182927-.15475609-.32926829-.27493901-.61079267-.37042682-.28646341-.0954878-.66512193-.1712195-1.1409146-.22719511C5.7276218.70298779 5.11518279.67829266 4.37432915.67829266c-.72109754 0-1.32036582.02469513-1.79780483.08560976z"/>
    <path id="e" d="M1.1184146.84786583c-.19262194 0-.35067072.05268293-.48237803.15640244-.13170731.10536585-.24530487.27493901-.34408536.51365852-.0954878.2387195-.16463414.55481706-.21237804.95487802-.04609756.40006097-.07408537.882439-.07408537 1.45371948 0 .54987803.0279878 1.02237802.07408537 1.41091459.0477439.38853658.11689024.70463413.21237804.94006095.09878049.23707317.21237805.4132317.34408536.52518292.13170731.11689024.28975609.17286585.48237803.17286585H10.35439v29.727987c0 .1893293.0625609.3589024.1843902.5103659.1218293.1564024.327622.274939.612439.3753658.2864634.0938415.670061.1679268 1.1557317.2239024.4856707.057622 1.0882317.0872561 1.8093292.0872561.7194512 0 1.3269512-.0296341 1.8126219-.0872561.4807317-.0559756.8676219-.1300609 1.1540854-.2239024.2864634-.1004268.4889634-.2189634.612439-.3753658.1201829-.1514635.1827439-.3210366.1827439-.5103659V6.9755486h9.239268c.1695732 0 .3259756-.05597561.467561-.17286585.1432317-.11195122.2617683-.28810975.3572561-.52518292.0954878-.23542682.1629878-.55152437.2140243-.94006095.0460976-.38853657.0691464-.86103656.0691464-1.41091459 0-.57128048-.0230488-1.05365851-.0691464-1.45371948-.0510365-.40006096-.1185365-.71615852-.2140243-.95487802-.0954878-.23871951-.2140244-.40829267-.3572561-.51365852-.1415854-.10371951-.2979878-.15640244-.467561-.15640244H1.1184146z"/>
    <path id="g" d="M2.73951212.84786583c-.62890242 0-1.15573167.18603658-1.58378044.55481706-.42969511.37207316-.64207316.97628046-.64207316 1.81097556V36.7035356c0 .1893293.05597561.3589024.16957317.5103659.11689024.1564024.31280487.274939.59926828.3753658.28481706.0938415.6717073.1679268 1.15243899.2239024.48567072.057622 1.09152436.0872561 1.81426824.0872561.73756096 0 1.34506094-.0296341 1.8241463-.0872561.47414633-.0559756.85774388-.1300609 1.13926826-.2239024.28481707-.1004268.4889634-.2189634.61243901-.3753658.1234756-.1514635.18603658-.3210366.18603658-.5103659V22.6553043h2.33615845c.7968293 0 1.4998171.1201829 2.107317.3704268.6091464.2469512 1.1475.612439 1.6134146 1.0964634.467561.4840244.8906707 1.0865853 1.2693293 1.8076829.3786585.7243902.7671951 1.5524999 1.1656097 2.4793901l3.3091462 8.2366462c.0757318.2255487.1679269.424756.2815244.5860975.1168903.1613415.3111586.2930488.5893903.400061.2716463.1004268.6503048.1745122 1.1244511.2107317.4741464.0395122 1.1112805.0576219 1.9064634.0576219.9515854 0 1.7006707-.0181097 2.2521951-.0576219.5515243-.0362195.9729878-.1053659 1.2545121-.2008537.2864634-.0938414.467561-.2107317.54-.3556097.0790244-.1415854.1135976-.3177439.1135976-.5251829 0-.1909756-.0444512-.4527439-.139939-.7853049-.0921952-.3342073-.2815244-.8577439-.5679878-1.5837804l-3.109939-7.2636584c-.3605487-.8725609-.7309756-1.6578658-1.1129268-2.3542682-.3753658-.6898171-.7787195-1.3071951-1.2067682-1.8504878-.4280488-.5383536-.8840854-1.0042682-1.3697561-1.3812804-.4840244-.3819512-1.0009756-.7029878-1.5525-.9696951 1.1392683-.3605488 2.155061-.8363415 3.0490244-1.4257317.892317-.5877439 1.6430487-1.2808536 2.2505487-2.0809755.6091463-.7984756 1.0701219-1.7039634 1.3829268-2.7230488.3144512-1.0157926.4692073-2.1385975.4692073-3.3782925 0-1.46195122-.2156708-2.75597558-.6568903-3.88701214-.4362804-1.13268289-1.0668292-2.1106097-1.8949389-2.93871943-.8231707-.82481705-1.832378-1.49652435-3.0226829-2.00853653-1.1837195-.51201218-2.5189023-.8742073-4.0039023-1.08329266-.5103658-.0559756-1.08-.1037195-1.7056097-.1432317-.6289024-.03621951-1.4240853-.0559756-2.3970731-.0559756H2.73951212zm5.27158523 5.72926814h3.36018285c.8577439 0 1.5278048.02963415 2.0101829.08560976.487317.0559756.9186585.13335365 1.3006097.22719511 1.2528658.34243902 2.1550609.93182925 2.7065853 1.76652435.5482317.83798778.8264634 1.86365851.8264634 3.07701211 0 .8001219-.135 1.5228658-.400061 2.1682316-.265061.6470122-.6651219 1.2018293-1.1985365 1.6677439-.530122.467561-1.1968903.8281097-1.9937195 1.084939-.7968293.2535366-1.7303048.3835976-2.7954877.3835976H8.01109735V6.57713397z"/>
    <path id="i" d="M15.0508533.71780486c-.592683.03128049-1.0503659.09713414-1.3878659.19920731-.3292682.10701219-.5696341.25682926-.7243902.45932926-.1498171.19756097-.2831707.45932925-.4000609.78036583L1.16890241 34.8793893c-.23213414.665122-.37207316 1.1985366-.42804877 1.5969512-.05762195.3951219.0082317.7079268.19591463.9235975.1909756.2206098.53506096.3572561 1.02896339.4132317.49390242.057622 1.17713411.0872561 2.04969506.0872561.81823169 0 1.48006094-.0181097 1.98384141-.0576219.50378048-.0362195.89231705-.1103049 1.16725607-.2107317.27329268-.1070122.47743901-.2502439.59926828-.4296951.12512195-.1794513.22225609-.405.29634145-.670061l2.34109747-7.2093291h13.8523167l2.4793902 7.4068901c.0790244.2502439.1728659.4461585.2864634.6025609.1135976.1514634.3160976.27.5992683.3506708.2848171.0905487.6964024.144878 1.2380487.1745121.5416464.0279879 1.2973171.0428049 2.2653658.0428049.9318293 0 1.6660976-.0246951 2.1962195-.072439.5317683-.0477439.9021951-.1695732 1.1145731-.3687805.2074391-.1975609.2815244-.4971951.2239025-.897256-.0543293-.4017074-.197561-.9433537-.4264025-1.6265854L22.8331092 2.24396336c-.1168903-.36054878-.255183-.64701218-.4148781-.8544512-.1629878-.20579268-.4264024-.3654878-.7984756-.47249999-.3704268-.10207317-.8906707-.16792682-1.5541463-.19920731-.6634756-.02634146-1.5590853-.0395122-2.6802438-.0395122-.9680488 0-1.7467683.01317074-2.3345121.0395122zm2.2242072 7.16981688h.0312805l5.2123169 15.67646296H12.0561582l5.2189023-15.67646296z"/>
  </defs>
  <g fill="none" fill-rule="evenodd">
    <path fill="#DF3318" d="M32.2271333 19.581969l-2.8135975 1.3285975-.6996951.6996951c-5.4214023 2.1320121-5.9301218.9960365-11.9063411 3.5034145l-2.7987805.7013415-3.5034145 1.3977438H9.10262171l-1.39774387.7013415H4.90115841l-2.09908531.6996951h-.69969511l-1.39609752.1580488-.0082317-1.5590854-.39841463-1.9426828.39841462-.8560976v-1.4043292L0 22.311603v-1.4010365l1.39939021-.7013415h2.80536578c2.32628042-1.4537194 2.95847553.0806708 6.30054861-2.102378h4.204756l.6980487-.6980487h.7013415l1.3993902-.7013415 2.102378-.7013414.6996951-.6996951h1.4010365l2.1007317-.6980488c1.7764024-1.9640853 4.5998779-2.2093902 7.0051827-2.8037194l1.3993902-.6996951 1.4026829-.70134146.6996951-.70134144h.6980488l2.102378-2.09908531h.7029878l1.3993902-.69969511.6980487-.70298778 3.5017682-2.80042676h.7029878V2.6987377l.6980488-.70134145 1.4059756.70134145v.70134144l.9449999.45109755 1.0767073 1.07999997 1.6167073 1.48006094.5614024 1.19195119v.6996951l-1.4043292.6996951-1.3977439 1.40103655-2.0990853 2.10237796-1.4026829.6980488-1.4026829 1.4043292-1.4010365.6980488-2.7987804 1.4010365-3.5050609 1.3993902-.6980488.7029878-2.102378.6980488.0098781.0740854z"/>
    <g transform="translate(22.499999 .419378)">
      <mask id="b" fill="#fff">
        <use xlink:href="#a"/>
      </mask>
      <path fill="#FBD016" d="M.69481096.43216462l1.07670729-.1547561s.96969509.39182927 1.61506093.35067073C3.98420111.59185974 4.84194499.1292378 4.84194499.1292378l2.15176824.22884146.60256096.36054877c.47579267 0 .81987803-.30292682 1.1326829-.36054877.47908535-.09219512.86597558.02634146 1.45701211-.08067073l.9927439.11689024.3770122-.11359756.5729268-.00329268v.96475607l-.2420122 1.40268289.3226829 1.40597557c-.2403658.87585364-.3226829 1.57554874-.2403658 2.4563414l-.3276219 1.75335361c.2453048.52682926.2453048.87914632.2453048 1.40432923 0 .3375.1662805.9680488.0082317 1.1392683-.2963414.3177439-1.0404877 0-1.3055487 0-.2271951 0-1.81097557.2107317-2.05134142.2255487-.28317072.0181098.03128049-.3704268-.26341463-.3391463-.46756096.0510366-1.25451216.5778658-1.73359751.6404268-.96640241.1267683-.882439 0-1.77969508 0l-1.29073167-.2617683-1.38128045-.0016463-1.35658533.1514634-.01646341-.414878.24365853-2.45304875c-.1432317-.45603657-.0477439-1.04871948-.11359756-1.35658533-.1267683-.58609754-.33914634-.73262193-.33914634-1.01908534 0-.43298779.23213415-.81823168.26341463-1.05365851.03292683-.24530487-.135-.33914633-.135-.78365851 0-.61573169.64536584-.70298779.80835364-1.31871948L.69481096 1.52533533V.43216463z" mask="url(#b)"/>
    </g>
    <path fill="#7DB520" d="M30.5389748 22.1061396l.6980488-2.1007316.1860365-.6272561 1.215-.072439 2.5468902.1218292.9565244.5778659.7013414-.6996951 2.7987804.6996951.7046341.6996951-.7046341 2.1007316v2.1007317l-.6996951.7029878v2.0990853l-.6996951 3.5017682-.7013414 1.4043292-.6980488 2.097439v2.102378l-.7013414.7013414v1.3993902l-.6996952 2.1007317-.7013414 1.4026829-.7013414 2.0990853v.7029878l-.6980488.7029877-.7029878 2.7971341-1.4010365 2.097439v.7013414l-.6980488 1.4043293-.7013414.694756v.6996951l-.7029878.7013415v1.4043292l-1.3565854-.2271951-1.6084755-.1366463-2.0266463.1366463-2.4365853-.1366463-.9729878-.3375-1.4421951-.2008537.7425-1.2034756.6996951-.6996951v-.694756l.7013414-.7013415.6996952-2.0990853.6980487-1.4026829.7013415-2.1007316v-1.3993902l1.4010365-2.102378.6996951-1.3977439v-.7046341l.7013415-1.3977439v-1.4026829l1.3993902-2.1007316v-2.102378l.6996951-.6996951V30.5123589l.6996951-1.4010365v-.7029878h.7029878v-.6996951c.5268292-1.0503659.4445121-4.127378.7112194-5.704573l-.009878.1020731z"/>
    <path fill="#0360A8" d="M29.7735907 24.7187188l1.4043292.7013415-.7029878.9614634-.7079268.7046341-.7013414.8775-.5218903 1.0520121-.1778048 1.2314634-1.4026829 2.8037194-1.4026829 2.1007317-.6964024.6996951-1.4010366 2.1007317-.7029878.7029877-.6996951 1.3977439-.7029878.7029878-.6980487 2.1007316v.6980488l-1.4010366.7029878-.6996951.6996951-1.4026829 2.1007316v.7013415l-.7013414.6996951-1.3960975 1.4010365v.7013415l-1.4043293 2.097439-1.4010365 2.1023779-.6980488.6980488-1.4026829-.6980488h-.70134141l-2.10073165-.7029877H5.94773765l-.69804876-.7013415-2.102378-.6980487-1.49981703-.5037805.80835364-.6717073.69146339-.9219512.70298779-.7013415h.70134144l.69804877-.6996951 1.3993902-2.102378.70134145-.7013414 1.22981704-1.4076219 1.57225602-1.3944512.7013415-1.4010365 1.3993902-.6964025.6996951-.7013414v-.7029878l.7013414-1.3977439 1.4043293-1.4010365v-1.4026829l1.5755487-2.1106097 1.2232317-2.0908536.7013414-.6996951.6996951-2.102378.6980488-.7013414 1.4010365-2.1007317v-.6996951l.7029878-.6980488v-.7046341c.7885976-.2617683.2979878-1.7829877 1.0009756-1.9558536l1.8850609.8083536.675.6717073 1.08.405 1.6660975.4148781 1.4059756.4313414z"/>
    <path fill="#5B5B5E" d="M5.94032911 60.790224c.41158536.1267683.82152437.3078658 1.2084146.5367073.39182926.2337804.71286584.5021341.97298778.8116463.26176829.2996341.40006097.6420731.43628048.9960365 0 .4231098-.08231707.7869512-.23213414 1.1195122-.14652439.332561-.32762194.6058537-.54823169.8132927-.21567073.2140244-.42146341.3852439-.62890243.4988414.2304878.8577439.5482317 1.9114024.94006095 3.1543902.02140244.0592683.02140244.1020731.02140244.1284146 0 .1448781-.07737804.2831707-.22719511.409939-.16134146.1135976-.33091463.1695732-.51530487.1695732-.22719511 0-.35560974-.0905488-.40006096-.2617683-.08067073-.2601219-.1827439-.6272561-.30786585-1.084939-.12676829-.4576829-.25189024-.9054878-.37701218-1.3253048-.11195122-.4247561-.20579268-.7095732-.2502439-.867622-.05926829.0115244-.26341463.0214025-.62890242.0559756-.60585364-.0345731-1.12115851-.1152439-1.53274386-.2617682-.03292683.4790853-.06914634 1.0289633-.09054878 1.6331706.03457317.467561.0477439.8462195.0477439 1.1293903 0 .1613414-.05762195.284817-.17615853.3901829-.11195122.1020731-.23707317.1580488-.38524389.1695731-.30951219-.0214024-.46756097-.1942682-.49225609-.5120121-.02140244-.3095122-.08067073-.9038415-.09219512-1.7813415-.00987805-.6865243.04609756-1.3845731.10536585-2.1040243.0675-.7210975.15804878-1.4191463.28481707-2.102378.12512195-.684878.27493901-1.302256.45603657-1.827439.09219512-.2650609.29963414-.4017073.63054876-.4017073.14652439 0 .28646341.0345732.40993902.0905488.11359756.0460976.17945121.1152439.19262194.1843903.36878048.0214024.75237803.1037195 1.17878046.2387195M3.9762438 64.4829678c.56963413.1827439 1.08493899.284817 1.51792679.3095122.51530486-.057622.95981704-.2057927 1.33682923-.4362805.37865853-.2271951.56140242-.5729268.56140242-1.017439 0-.2848171-.17286585-.5581098-.52682925-.8215244-.35396341-.2634146-.76554876-.467561-1.23475607-.6404268-.45603657-.1596951-.82317071-.2387195-1.09646338-.2387195-.20579268.6964024-.39018292 1.6463414-.55810974 2.844878M13.1478472 62.6199678c.3292683 0 .6272561.0460976.8906707.1366464.2502439.082317.4906098.207439.6964024.3556097.1942683.1481707.4115854.342439.6157317.5696341.2173171.2403659.3901829.4132317.5054268.5498781.2057927.2420122.3062196.5004878.3062196.7754268 0 .217317-.0675.4115853-.2156708.5844512-.1366463.1695731-.3440853.2864634-.6058536.3539634-.1629878.0345732-.4329878.0905488-.8017683.1465244-.3638414.0691463-.6931097.1366463-1.0141463.2057926-.3095122.0675-.6651219.1843903-1.0750609.332561-.400061.1465244-.800122.3342073-1.2248781.5696341.197561.3556098.4609756.6535976.7918903.872561.3325609.2140244.694756.3753658 1.0964633.467561.400061.0905487.8231708.1580487 1.2660366.1580487.5070732 0 1.0750609-.0905487 1.7368902-.2271951.1514634 0 .2765854.0559756.3786585.1794512.1020732.1284147.1580488.265061.1580488.4264025 0 .2485975-.1103049.3984146-.3292683.4445121-.6634756.1366464-1.3039024.2025-1.8982316.2025-.8083537 0-1.5771951-.144878-2.2851219-.4412195-.7178049-.3012804-1.3253049-.8116463-1.8043902-1.5442682-.0131708.009878-.0329269.0230488-.0559756.0230488-.0230488.0131707-.0460976.0230487-.0559756.0230487-.0921952 0-.1959147-.0806707-.29963419-.2288414-.10207317-.1498171-.15969512-.2996341-.16957316-.4461585.01975609-.1596952.07902438-.2634147.15804877-.3095122-.0675-.2156707-.1152439-.477439-.13829268-.7869512.01317073-.4576829.1070122-.9137195.26341466-1.3697561.1712195-.4593292.4362804-.8577439.7885975-1.2133536.3556098-.3539634.7885976-.5910366 1.3137805-.6964024.414878-.0790244.7556707-.1135976 1.0075609-.1135976m1.4833536 1.8867073c-.1695731-.2206098-.3868902-.4115854-.6733536-.5844512-.274939-.1843903-.5926829-.2732927-.9581707-.2732927-.3095122 0-.5943293.0658537-.8593902.1926219-.27.1234757-.5004878.2979878-.6964025.5268293-.2057926.2156707-.3638414.467561-.4807317.7556707-.1103048.2848171-.1728658.5679878-.1810975.8659756.0082317.0806707.0230488.1712195.0230488.274939.8231707-.3868902 1.5640243-.6618292 2.2390243-.8462195.1580488-.0444512.4445122-.1251219.8445732-.2271951.4000609-.1185366.6651219-.1843902.7885975-.2189634.1152439-.0444512.1843902-.0658537.1942683-.0889024 0-.0477439-.0790244-.1728659-.2403659-.3770122M23.7366213 62.0266264c0 1.0026219.0905488 1.8603658.1942683 2.5600609.1004268.4000609.1580488.6947561.1580488.9120731 0 .2057927-.0329268.4231098-.1135976.675 0 .1135976.0230488.3523171.0691464.7276829.0444512.3704268.0658536.6535976.0658536.8593902 0 .4461586-.2255487.6848781-.6947561.7309756-.1712195-.0329268-.3078658-.1020731-.3753658-.217317-.0806707-.1119513-.1382927-.2732927-.1613415-.4906098-.2502439.2502439-.5959756.4560366-1.0059146.6289024-.4231097.1613415-.8593902.2502439-1.3137804.2617683-.3770122-.0329268-.6519512-.0790244-.8001219-.1152439-1.0157927-.2584756-1.6891463-.9235975-2.0101829-1.9871341-.0823171-.2716463-.1596951-.6387804-.1728659-1.0931707-.009878-.5169512.1284147-1.017439.3556098-1.5245121.217317-.5021342.5367073-.9120732.9482926-1.2331098.4115854-.3177438.8906707-.4790853 1.4175-.4790853.2057927 0 .5004878.0345732.8906707.1135976.0921951-.0790244.1959146-.1135976.2848171-.1135976.3095122 0 .6618292.2057927 1.0520121.6058536-.0214024-.284817-.0460975-.5712804-.0691463-.8445731-.0230488-.2848171-.0329268-.5004878-.0460976-.6519512.0131708-.1135976.0131708-.2057927.0230488-.2848171 0-.0938414.0098781-.1596951.0098781-.217317 0-.0691464.0131707-.1498171.0131707-.2518903.0115244-.1037195.0230488-.1942683.0230488-.2979878.0115244-.2387195.0806707-.4214634.207439-.5465853.1234756-.1284147.2601219-.1827439.4214634-.1827439.1959146 0 .3638415.0675.5021341.1959146.1366464.135.2173171.3062195.2057927.5120122-.0115244.3095122-.0790244.8906707-.0790244 1.7484146m-3.3486584 1.3121341c-.3440854 0-.6387805.1135975-.8791463.3687805-.2403659.2354268-.4231098.5367073-.5482317.9005487-.1284147.3539634-.1827439.7194512-.1827439 1.075061.0460975.3407926.1712195.6749999.342439.9812194.1827439.3095122.3984146.5597561.6733536.7441464.2634146.1810975.5482317.2732926.8577439.2732926.1020732 0 .2057927-.0131707.3078658-.0345731.4115854-.0921951.7902439-.2634147 1.1178659-.5004878.3457317-.2535366.5860975-.54.7227439-.882439 0-.5597561-.0707927-1.0734146-.2057927-1.5393292-.0477439 0-.0905488.009878-.1382927.0197561-.1810976-.0345732-.3309146-.1267683-.4445122-.2732927-.1251219-.1382927-.2617683-.3095122-.4115853-.5169512-.1613415-.2057927-.3078659-.3490244-.4560366-.4231098-.2979878-.1317073-.5482317-.1926219-.7556707-.1926219M35.4200478 62.0266264c0 1.0026219.0921952 1.8603658.192622 2.5600609.1053658.4000609.1613414.6947561.1613414.9120731 0 .2057927-.0345731.4231098-.1152439.675 0 .1135976.0246952.3523171.0691464.7276829.0460975.3704268.0675.6535976.0675.8593902 0 .4461586-.2288415.6848781-.6947561.7309756-.1728658-.0329268-.3095122-.1020731-.3786585-.217317-.0806707-.1119513-.1382927-.2732927-.1596951-.4906098-.2535366.2502439-.5943293.4560366-1.0059146.6289024-.4214634.1613415-.8544512.2502439-1.3154268.2617683-.3737195-.0329268-.6503049-.0790244-.7968293-.1152439-1.017439-.2584756-1.6907926-.9235975-2.0134755-1.9871341-.0790244-.2716463-.1564025-.6387804-.1679269-1.0931707-.0131707-.5169512.125122-1.017439.3523171-1.5245121.2156707-.5021342.5367073-.9120732.9482927-1.2331098.4115853-.3177438.8939633-.4790853 1.4142072-.4790853.2057927 0 .5037805.0345732.8923171.1135976.0954878-.0790244.1959146-.1135976.284817-.1135976.3111586 0 .6634756.2057927 1.0536586.6058536-.0230488-.284817-.0444513-.5712804-.0675-.8445731-.0214025-.2848171-.0362196-.5004878-.0460976-.6519512.009878-.1135976.009878-.2057927.0246951-.2848171 0-.0938414.0082317-.1596951.0082317-.217317 0-.0691464.0131708-.1498171.0131708-.2518903.009878-.1037195.0230487-.1942683.0230487-.2979878.0098781-.2387195.0773781-.4214634.2025-.5465853.1284147-.1284147.2617683-.1827439.4247561-.1827439.1942683 0 .3654878.0675.5037805.1959146.1366463.135.2173171.3062195.2041463.5120122-.009878.3095122-.0790244.8906707-.0790244 1.7484146m-3.3486584 1.3121341c-.3407927 0-.6404268.1135975-.8791463.3687805-.2403659.2354268-.4231098.5367073-.5482317.9005487-.1284146.3539634-.1827439.7194512-.1827439 1.075061.0460975.3407926.1728658.6749999.3391463.9812194.1860366.3095122.4017073.5597561.6766463.7441464.2617683.1810975.5482317.2732926.8593903.2732926.1004268 0 .2041463-.0131707.3062195-.0345731.4115853-.0921951.7918902-.2634147 1.1178658-.5004878.3440853-.2535366.5860975-.54.7227439-.882439 0-.5597561-.0691464-1.0734146-.2057927-1.5393292-.0493902 0-.0921951.009878-.1366463.0197561-.1843903-.0345732-.332561-.1267683-.4478049-.2732927-.1234756-.1382927-.2584756-.3095122-.4115854-.5169512-.1596951-.2057927-.3062195-.3490244-.4560365-.4231098-.2996342-.1317073-.5482317-.1926219-.7540244-.1926219M40.6613404 62.6199678c.3309146 0 .6272561.0460976.8890244.1366464.2535365.082317.492256.207439.6980487.3556097.1959146.1481707.4115854.342439.617378.5696341.2156708.2403659.3868903.4132317.5037805.5498781.2041464.2420122.3078659.5004878.3078659.7754268 0 .217317-.0707927.4115853-.2189634.5844512-.1366464.1695731-.3407927.2864634-.6058537.3539634-.1580488.0345732-.4329878.0905488-.7968292.1465244-.3671342.0691463-.6980488.1366463-1.017439.2057926-.3095122.0675-.6634756.1843903-1.0767073.332561-.3984146.1465244-.7984756.3342073-1.2215854.5696341.1959147.3556098.457683.6535976.7902439.872561.332561.2140244.6947561.3753658 1.0964634.467561.400061.0905487.8215244.1580487 1.2676829.1580487.5037805 0 1.0734146-.0905487 1.7368902-.2271951.1514634 0 .2765854.0559756.3770122.1794512.1053658.1284147.1596951.265061.1596951.4264025 0 .2485975-.1152439.3984146-.332561.4445121-.6618292.1366464-1.3006097.2025-1.8949389.2025-.8116464 0-1.5771951-.144878-2.2867683-.4412195-.7178048-.3012804-1.3236585-.8116463-1.8027438-1.5442682-.0115244.009878-.0362195.0230488-.0609146.0230488-.0214025.0131707-.0444513.0230487-.0543293.0230487-.0905488 0-.1942683-.0806707-.2979878-.2288414-.1037195-.1498171-.1613415-.2996341-.1712195-.4461585.0246951-.1596952.0790244-.2634147.1596951-.3095122-.0691463-.2156707-.1135976-.477439-.135-.7869512.009878-.4576829.1020732-.9137195.2617683-1.3697561.1712195-.4593292.4346341-.8577439.7885975-1.2133536.3539634-.3539634.7853049-.5910366 1.3121341-.6964024.4132317-.0790244.7556707-.1135976 1.007561-.1135976m1.4817073 1.8867073c-.1695732-.2206098-.3852439-.4115854-.6733537-.5844512-.2732927-.1843903-.5926829-.2732927-.959817-.2732927-.3062195 0-.5926829.0658537-.8560976.1926219-.2716463.1234757-.5021341.2979878-.6964024.5268293-.2041463.2156707-.3654878.467561-.4790853.7556707-.1152439.2848171-.1712195.5679878-.1827439.8659756.0115244.0806707.0214024.1712195.0214024.274939.8248171-.3868902 1.567317-.6618292 2.242317-.8462195.1564025-.0444512.4445122-.1251219.8445732-.2271951.4000609-.1185366.6618292-.1843902.7885975-.2189634.1119512-.0444512.1827439-.0658537.1909756-.0889024 0-.0477439-.0790244-.1728659-.2403658-.3770122M50.8368828 62.1970227c.1382927.1366463.2963415.2502439.4922561.342439.2041463.0790244.4428658.1712195.7425.2617683.2963414.0938415.4807317.1481707.5465853.1843902.4807317.1810976.8676219.3984147 1.1771341.6404269.3078659.2518902.5482317.5136585.7079268.7770731.1728659.2617683.2864634.5268293.3440854.7885975.0576219.2469513.0905488.4889634.0905488.7293293 0 .4115854-.0543293.7688414-.1695732 1.0520122-.1053658.2732926-.3226829.5383536-.6289024.7655487-.1168903.0790244-.2732927.2387195-.4692073.4461585-.1942683.2173171-.342439.3753659-.4593293.4906098-.1119512.1037195-.2732926.2057927-.4807317.3078658-.212378.0921952-.4527439.1596952-.7408536.1596952-.7655488.0131707-1.4471341-.1728659-2.0562804-.5021342-.602561-.3309146-1.0964634-.8001219-1.4833537-1.3944512-.0477439-.0691463-.0691463-.1465243-.0691463-.2518902 0-.1234756.0559756-.2370732.1827439-.342439.1267683-.0987805.2502439-.1465244.400061-.1465244.1596951 0 .2617682.0543293.3292682.1596951.2634147.400061.6289025.7178049 1.0865854.9910976.4576829.2650609.9038414.414878 1.3236585.414878.2535366 0 .4708536-.0806707.6519512-.1959146.197561-.1267683.4231097-.3210366.6881707-.5959756.2634146-.2716464.409939-.4214634.4428658-.4560366.2535366-.2502439.3803049-.5581097.3803049-.9120732 0-.2502438-.0707927-.5021341-.207439-.7671951-.1366463-.2485975-.3671341-.5004877-.6733536-.7540243-.322683-.2387195-.7210976-.467561-1.2133537-.675-.0987805-.0428049-.2930487-.1103049-.5943292-.2041463-.2946951-.1020732-.5465854-.2041464-.7507317-.3078659-.2057927-.1020732-.4017073-.2387195-.5630488-.4132317-.1580488-.1712195-.2617683-.3885366-.3177439-.6404268 0-.0790244-.0131707-.1794512-.0477439-.3276219.0115244-.3819512.1284147-.6865244.3440854-.9268903.2156707-.2403658.5037805-.4115853.8478658-.5251829.327622-.1053658.6832317-.1613414 1.0602439-.1613414.5367073 0 1.1310365.1037195 1.8043902.2996341.0921951.0214024.1366463.1119512.1366463.2831707 0 .1481708-.0329268.2979878-.1119512.4461586-.0823171.1366463-.1712195.217317-.2881097.2304878-.1827439-.0691464-.4313415-.1481708-.7392073-.2206098-.3095122-.0658537-.6173781-.1004268-.9170122-.1004268-.2848171 0-.5120122.0477439-.6964024.1366463-.1827439.0905488-.2848171.2271951-.3078659.4198171 0 .1959146.0675.3572561.2057927.4939024M62.5349618 69.3386871c-.1020732 0-.1959147-.0246951-.2749391-.0559756-.0691463-.0460975-.1382926-.0971341-.1712195-.1629878-.0477439-.0543292-.0921951-.1382926-.1267683-.2156707-.0345731-.0790244-.0691463-.1827439-.1152439-.2963414-.284817.2716463-.6486585.4906097-1.0964633.6503048-.4461586.1596951-.9137195.2403659-1.3812805.2403659-.5712805 0-1.0618902-.1168903-1.4734756-.3539634-.2765853-.1629878-.5367073-.4231098-.7885975-.7425-.2535366-.3309146-.4576829-.675-.6075-1.0520122-.1465244-.3671341-.2288414-.6832317-.2387195-.959817.0230488-.2288415.0691463-.3901829.1152439-.467561.0889024-.1498171.1909756-.3671341.3095122-.684878.1020732-.3095122.2370732-.5729268.3984146-.7787195.1465244-.2057927.409939-.4115854.7639024-.6272561.4461586-.265061.9729878-.4017073 1.5656707-.4017073h.332561c.1267683-.1218293.2485975-.192622.3753658-.2057927.2732927 0 .6289025.139939 1.0273171.4247561l.0921951-.3786585c.0345732-.125122.0938415-.2271951.207439-.3062195.1135976-.0823171.2387195-.1152439.3984146-.1152439.1745122 0 .3440854.0576219.5169513.1596951.1564024.1037195.2370731.2403658.2370731.400061 0 .1234756-.0312805.3078658-.0905488.5367073-.0460975.2387195-.077378.4115853-.0921951.5136585.0148171.1728658.0460976.3210366.0823171.4478048.0345732.125122.0905488.3095122.1695732.5696342.0790243.2617683.1366463.4790853.1810975.6535975.0362195.1794512.0609146.3523171.0609146.5367073 0 .1333537-.0362195.4329878-.1053658.8659756.0559756.135.1284146.342439.207439.6058537.0773781.274939.1234756.5120121.1234756.7309755 0 .1382927-.0197561.2288415-.0675.2749391-.135.1234756-.3210366.1942682-.5350609.1942682m-.9828659-2.7428048c0-.4017073-.1152439-.8807926-.3539634-1.4520731-.0362195-.1234756-.1168902-.1909756-.2321341-.1909756-.0230488 0-.0773781.0115244-.1695732.0197561-.0790244.0131707-.1481707.0230488-.207439.0345732-.1234756-.0428049-.2732927-.1119512-.4576829-.2387195-.1794512-.1152439-.3292683-.1942683-.4329878-.2518903-.1119512-.0576219-.2403659-.0806707-.3984146-.0806707-.2041464 0-.4115854.0477439-.6289025.1267683-.2288414.0806707-.419817.2057927-.5943292.3654878-.1679268.1613414-.2963415.3407927-.3638415.5482317-.0230487.0658536-.0691463.1613414-.139939.2732927-.0790244.1168902-.135.2057926-.1679268.2864634-.0362195.0675-.0592683.1580487-.0707927.2732926.0345732.0921952.0444512.1596952.0444512.1959147.3342073 1.3121341.9845122 1.9970121 1.9443292 2.0118292.4346342 0 .867622-.1514634 1.2660366-.400061.4132317-.2535366.6766463-.5169512.8001219-.7770731.1020732-.2189634.1629878-.4593293.1629878-.7441464M66.2665592 61.8787849c0 .6980488.0230488 1.3467073.0790244 1.9410365.0477439.592683.1267683 1.2462805.2288415 1.9640854.1053658.7227438.1827439 1.2100609.217317 1.494878.0345732.2881097.057622.5844512.057622.8807926 0 .2288415-.0345732.4132317-.1004268.5597561-.0691464.1366463-.2057927.2189634-.4132317.2420122-.1712195-.0115244-.3193903-.0806707-.467561-.2057927-.1415854-.1234756-.207439-.2617683-.207439-.4231097 0-.3177439-.0691464-.8890244-.2041464-1.7368902-.1366463-.8445732-.2403658-1.5985975-.3210365-2.2489024-.0806708-.6634756-.1481708-1.427378-.1366464-2.2966463.0098781-.4906097.0345732-.8462195.0460976-1.0767073 0-.2288414.0675-.4000609.1810975-.5235365.1168903-.1135976.2518903-.1728659.4115854-.1728659.1843902 0 .3440854.0592683.4692073.1629878.125122.0905488.1827439.2288415.1827439.3737195-.009878.4329878-.0230488.7902439-.0230488 1.0651829M74.4113395 69.3386871c-.1020732 0-.1942683-.0246951-.274939-.0559756-.0675-.0460975-.1366464-.0971341-.1712195-.1629878-.0444513-.0543292-.0905488-.1382926-.125122-.2156707-.0345732-.0790244-.0675-.1827439-.1152439-.2963414-.2864634.2716463-.6503048.4906097-1.0964634.6503048-.4461585.1596951-.9137195.2403659-1.3812804.2403659-.5729268 0-1.0618902-.1168903-1.4751219-.3539634-.2732927-.1629878-.5367073-.4231098-.7885976-.7425-.2502439-.3309146-.4576829-.675-.6025609-1.0520122-.1498171-.3671341-.2321342-.6832317-.2403659-.959817.0230488-.2288415.0675-.3901829.1119512-.467561.0905488-.1498171.1942683-.3671341.3078659-.684878.1053658-.3095122.2403658-.5729268.400061-.7787195.149817-.2057927.4132316-.4115854.7671951-.6272561.4428658-.265061.9713414-.4017073 1.5640243-.4017073h.3342073c.1218293-.1218293.2485976-.192622.3737195-.2057927.274939 0 .6289024.139939 1.0306097.4247561l.0905488-.3786585c.0329268-.125122.0905488-.2271951.2041464-.3062195.1135975-.0823171.2420121-.1152439.4000609-.1152439.1728659 0 .3440854.0576219.5153049.1596951.1580488.1037195.2387195.2403658.2387195.400061 0 .1234756-.0329268.3078658-.0921951.5367073-.0444512.2387195-.0773781.4115853-.0905488.5136585.0131707.1728658.0460976.3210366.0823171.4478048.0329268.125122.0889024.3095122.1695731.5696342.0806708.2617683.1366464.4790853.1843903.6535975.0312805.1794512.0559756.3523171.0559756.5367073 0 .1333537-.0345732.4329878-.1037195.8659756.0576219.135.1267683.342439.207439.6058537.077378.274939.1234756.5120121.1234756.7309755 0 .1382927-.0214024.2288415-.0691463.2749391-.135.1234756-.3177439.1942682-.535061.1942682m-.9812195-2.7428048c0-.4017073-.1185366-.8807926-.3556097-1.4520731-.0345732-.1234756-.1135976-.1909756-.2288415-.1909756-.0246951 0-.0790244.0115244-.1712195.0197561-.0806707.0131707-.1481707.0230488-.2041463.0345732-.1267683-.0428049-.2765854-.1119512-.4609756-.2387195-.1794513-.1152439-.3292683-.1942683-.4329878-.2518903-.1135976-.0576219-.2387195-.0806707-.3984147-.0806707-.2057926 0-.4115853.0477439-.6289024.1267683-.2271951.0806707-.4231097.2057927-.5943292.3654878-.1728659.1613414-.2963415.3407927-.3654878.5482317-.0230488.0658536-.0658537.1613414-.135.2732927-.0806708.1168902-.139939.2057926-.1745122.2864634-.0312805.0675-.0526829.1580487-.0658537.2732926.0345732.0921952.0444512.1596952.0444512.1959147.3309147 1.3121341.9812195 1.9970121 1.9410366 2.0118292.4346341 0 .8692683-.1514634 1.2709756-.400061.409939-.2535366.6733536-.5169512.8001219-.7770731.1004268-.2189634.1596951-.4593293.1596951-.7441464M77.7458394 63.9222239c.139939.0806707.3589024.1712195.6420732.2634146.274939.1004268.4461585.1596951.5037804.1827439.5021342.1942683.935122.4576829 1.277561.7885975.3556097.3210366.6091463.6503049.7787195.9927439.1613414.332561.2518902.6173781.2387195.8462195-.0098781.2403659-.0559756.4329878-.1135976.5828049-.0675.1481707-.2403658.3309146-.5004878.5367073-.0707927.0576219-.1975609.1596951-.3457317.3210366-.1580488.1712195-.284817.2946951-.3885366.3753658-.1020731.0921951-.2387195.1712195-.409939.2420122-.1596951.0790244-.3671341.1135975-.5828048.1135975-1.2578049 0-2.1945731-.4692073-2.7905487-1.4059755-.0329269-.0675-.0444513-.1135976-.0444513-.1629878 0-.1366464.0691464-.2584756.2074391-.3737195.135-.125122.2716463-.1810976.3984146-.1810976.1037195 0 .1728658.0329268.2173171.0921951.1959146.2930488.4576829.544939.7885975.7523781.3210366.2041463.6404268.3078658.959817.3193902.1942683-.0115244.3638415-.0691463.5153049-.1613415.135-.0905487.3062195-.2288414.4873171-.4115853.1843902-.1810976.3226829-.3095122.4247561-.3868903.082317-.0707926.1168902-.1613414.1168902-.2732926 0-.1843903-.0954878-.4033537-.274939-.6535976-.1860366-.2502439-.4231098-.4922561-.7210976-.7095731-.2963414-.2156708-.5959756-.3885366-.9137195-.4889634-.1827438-.0707927-.3770121-.1366464-.5943292-.2057927-.2057927-.0806707-.3885366-.1712195-.5482317-.2732927-.1596951-.1037195-.2848171-.2304878-.3770122-.3885366-.1037195-.1613414-.1481707-.3539634-.1481707-.5828048 0-.3539634.1234756-.6519512.3654878-.8906707.2535366-.2288415.617378-.3786586 1.1096341-.4017073.3391463-.0098781.7754268.0230487 1.2792073.0675.4906097.0362195.8330487.0938414 1.0157926.1514634.0559757.0214024.0921952.1135975.0921952.274939 0 .1366463-.0362195.2848171-.1037195.4329878-.0707927.1465244-.1498171.2156707-.2288415.2156707-.057622 0-.2156707-.0214024-.4560366-.0691463-.2535366-.0329269-.4790853-.0675-.6980487-.1004269-.2173171-.0214024-.4231098-.0345731-.6173781-.0345731-.5021341 0-.7540243.0905488-.7754268.2881097 0 .1234756.0691464.2255488.2140244.3160976M93.1674488 61.4204435c0 .1382926-.057622.2502439-.1613415.3440853-.1103049.1004268-.2469512.1580488-.4214634.1695732-.1596951-.0345732-.2732927-.057622-.3177439-.0905488-.3770122-.2057927-.6651219-.3539634-.8478658-.4346341-.1909756-.0823171-.4560366-.1135976-.7754268-.1135976-.1037196 0-.1942683.0098781-.2518903.0098781-.2601219.0214024-.5795122.1596951-.9482926.4214634-.3638415.2667073-.7079269.5844512-1.0059146.9713414-.2963415.3786585-.4774391.7342683-.5581098 1.0635366-.0839634.3671341-.1481707.7457926-.1613414 1.1442072-.0115244.4906098.0921951.9367683.2634146 1.3236585.1596951.390183.3770122.7079269.6387804.9614634.2765854.2518903.5614025.4346342.8807927.5482317.5465854.2057927 1.3006097.3160976 2.2406707.3062195.3062195 0 .5251829-.0444512.6486585-.1251219.1366463-.0806707.2996341-.2173171.4807317-.400061.1942683-.1712195.3786585-.2963414.5597561-.3671341.1251219-.0312805.217317-.0444512.2881097-.0444512.207439 0 .3852439.0691463.5218903.1942683.1531097.1251219.2189634.2881097.2189634.482378 0 .2288414-.1267683.4412195-.3556098.6618292-.6042073.5581098-1.4586585.8429268-2.5682926.8429268-.892317 0-1.8406097-.1695731-2.8333536-.5465853-.3012805-.1103049-.5745731-.3062195-.8231707-.5597561-.2617683-.2502439-.4807317-.5581097-.6733536-.9252439-.1942683-.3572561-.3572561-.7408536-.4593293-1.1656097-.1037195-.4214634-.1810975-.8692683-.1695732-1.3236585.0115244-.4560366.057622-.7902439.0921952-1.0075609.077378-.4313415.2518902-.8577439.4988414-1.2890854.2551829-.4231097.5630488-.8116463.940061-1.167256.3638414-.3424391.7671951-.6157317 1.2100609-.8215244.4346341-.2057927.8807927-.3062195 1.3253049-.3062195.5844512 0 1.302256.2255488 2.1583536.7062805.2518902.1366463.3654878.3193902.3654878.5367073M96.9601255 64.5861934c-.0131708.5811585.0543292 1.1293902.1234756 1.6430487.0806707.5037805.2057927.9252439.3556097 1.2479268.1596952.3160976.342439.5004878.5712805.5235366.3309146 0 .6190244-.0905488.8676219-.2864634.2403659-.1959147.4346342-.4214634.5828049-.6717073.1366463-.2518903.2271951-.4823781.2864634-.6865244 0-.0230488.0345732-.2864634.0773781-.7885975.0477439-.5004878.0954878-.8692683.1382926-1.1063415.0246952-.1053658.1827438-.1629878.4692078-.1629878.195914 0 .355609.0263415.479085.0691464.126768.0460975.195915.1053658.195915.1728658-.03622.3539634-.079025.7540244-.126769 1.1853658-.044451.4231098-.079024.8132927-.103719 1.1557317-.023049.3539634-.057622.7079268-.057622 1.0964634.01317.6634756.057622 1.1557317.103719 1.4981707 0 .0790244-.135.1135975-.423109.1135975-.148171 0-.294696-.0115243-.421464-.0345731-.1267682-.0082317-.2057925-.0477439-.2189633-.0790244-.077378-.207439-.1119512-.5844512-.1119512-1.1442073-.2502439.332561-.5054268.5597561-.7556707.675-.2485976.1267683-.5136585.1810975-.7869512.1810975h-.3111585c-.5482317-.0675-.9795732-.3292682-1.3006098-.7754268-.3045731-.4560365-.5383536-.9828658-.6503048-1.6117682-.125122-.6157317-.1959146-1.2676829-.1959146-1.967378 0-.4296951.0345731-.8659756.082317-1.3022561.0345732-.419817.0543293-.6256097.0543293-.5910365.0493902-.1234757.139939-.2206098.274939-.2864635.1382927-.0790243.274939-.1119512.4231098-.1119512.3325609 0 .492256.1366464.492256.4231098-.0460975.3309146-.1020731.8791463-.1135975 1.6216463M104.473205 63.5797849c.686524-.3407927 1.371402-.5136586 2.046402-.5136586.398415 0 .765549.0675 1.094817.1942683.332561.139939.595976.332561.811646.6042073.218964.274939.353964.6190244.411586 1.0190854.011524.1020731.021402.2601219.021402.4906097 0 .192622-.009878.5367073-.044451 1.0421341.023049.3605488.088902.6717073.182744.9235976.103719.2716463.161341.5021341.161341.6618292 0 .207439-.057622.3753659-.169573.5004878-.130061.1366463-.276585.2041463-.459329.2173171-.640427-.0691464-1.027317-.7293293-1.027317-1.9887805 0-.6601829.057622-1.1195121.047744-1.3565853 0-.342439-.128415-.6289024-.360549-.8577439-.215671-.217317-.50872-.342439-.889024-.3325609-.548232.0131707-1.096464.2304878-1.65622.6058536.047744.5745732.069146 1.35.069146 2.3443902 0 .8445731-.021402 1.3582317-.069146 1.5409756-.044451.1959146-.237073.3062195-.581158.3325609-.172866-.014817-.330915-.0576219-.45933-.1284146-.135-.0790244-.214024-.1728659-.204146-.2716463.079024-1.075061.138293-1.8307317.138293-2.2505488 0-.2979878-.011525-.6766463-.049391-1.1178658-.088902 0-.189329-.0378658-.294695-.1168902-.102073-.0691464-.158049-.1695732-.171219-.3078659.023049-.1827439.103719-.3687804.240366-.5614024-.011525-.0214024-.057622-.1481707-.148171-.3885366-.102073-.2288414-.149817-.409939-.159695-.5251829.019756-.1712195.100427-.3309146.217317-.4790853.126768-.1382927.274939-.2173171.444512-.2173171.194268 0 .352317.0691463.492256.2304878.190976.2140244.30622.4576829.363842.7062805M116.661564 69.3386871c-.102073 0-.192622-.0246951-.274939-.0559756-.0675-.0460975-.136646-.0971341-.169573-.1629878-.047744-.0543292-.088903-.1382926-.126768-.2156707-.031281-.0790244-.0675-.1827439-.115244-.2963414-.283171.2716463-.650305.4906097-1.096464.6503048-.444512.1596951-.913719.2403659-1.38128.2403659-.571281 0-1.06189-.1168903-1.471829-.3539634-.273293-.1629878-.538354-.4231098-.790244-.7425-.251891-.3309146-.456037-.675-.605854-1.0520122-.149817-.3671341-.227195-.6832317-.237073-.959817.01811-.2288415.065854-.3901829.113597-.467561.088903-.1498171.18933-.3671341.304574-.684878.105365-.3095122.242012-.5729268.400061-.7787195.151463-.2057927.413231-.4115854.767195-.6272561.446158-.265061.969695-.4017073 1.56567-.4017073h.330915c.128415-.1218293.250244-.192622.377012-.2057927.274939 0 .627256.139939 1.025671.4247561l.093841-.3786585c.032927-.125122.090549-.2271951.204147-.3062195.11689-.0823171.240365-.1152439.400061-.1152439.172865 0 .344085.0576219.515304.1596951.158049.1037195.23872.2403658.23872.400061 0 .1234756-.032927.3078658-.092195.5367073-.044451.2387195-.077378.4115853-.088903.5136585.011525.1728658.044452.3210366.079025.4478048.034573.125122.092195.3095122.171219.5696342.083964.2617683.136647.4790853.182744.6535975.034573.1794512.057622.3523171.057622.5367073 0 .1333537-.034573.4329878-.103719.8659756.057622.135.125122.342439.207439.6058537.079024.274939.123475.5120121.123475.7309755 0 .1382927-.021402.2288415-.0675.2749391-.138292.1234756-.316097.1942682-.536707.1942682m-.982866-2.7428048c0-.4017073-.113597-.8807926-.353963-1.4520731-.034573-.1234756-.113598-.1909756-.227195-.1909756-.026342 0-.082317.0115244-.17122.0197561-.082317.0131707-.151463.0230488-.207439.0345732-.125122-.0428049-.273293-.1119512-.456036-.2387195-.179452-.1152439-.329269-.1942683-.432988-.2518903-.115244-.0576219-.242012-.0806707-.400061-.0806707-.207439 0-.413232.0477439-.630549.1267683-.225549.0806707-.421463.2057927-.592683.3654878-.171219.1613414-.297988.3407927-.365488.5482317-.021402.0658536-.0675.1613414-.136646.2732927-.080671.1168902-.138293.2057926-.174512.2864634-.031281.0675-.052683.1580487-.065854.2732926.034573.0921952.042805.1596952.042805.1959147.334207 1.3121341.987805 1.9970121 1.945976 2.0118292.431341 0 .867621-.1514634 1.266036-.400061.409939-.2535366.675-.5169512.801768-.7770731.100427-.2189634.158049-.4593293.158049-.7441464M127.317838 64.5058519c-.192622.409939-.42311.8890244-.696402 1.427378-.265061.5482317-.492256.9927439-.663476 1.3467073-.182744.3539634-.321036.6519512-.421463.882439.092195.1119512.136646.274939.136646.4708537 0 .1893292-.044451.3506707-.148171.487317-.102073.1481707-.228841.2189634-.388536.2189634-.123476.2502439-.299634.5679878-.502134.9795732-.207439.4115853-.345732.6733536-.390183.7671951-.044452.0806707-.149817.1251219-.30622.1251219-.139939 0-.265061-.0444512-.380305-.1580488-.121829-.1053658-.192622-.2304878-.2025-.3901829.009878-.0131707.009878-.0444512.019756-.0905488.013171-.0477439.013171-.0806707.023049-.0954878.080671-.2140243.243659-.544939.479086-1.0240243.232134-.4692073.367134-.7441463.411585-.8462195-.293049-.2502439-.548232-.5367073-.765549-.8445732-.214024-.3095121-.38689-.6387804-.548232-.9713414-.14817-.342439-.307865-.7540244-.488963-1.2331097-.171219-.4823781-.309512-.8478659-.421463-1.0964634-.014817-.0493902-.024696-.0806707-.037866-.1168902-.011525-.0312805-.021403-.0790244-.032927-.1382927 0-.1564025.070793-.2831708.205793-.3984146.136646-.1004269.296341-.1596952.456036-.1596952.286464 0 .469207.1135976.563049.342439.065854.1843903.169573.4807317.304573.8692683.125122.400061.240366.7178049.344085.9828658.092196.2502439.215671.5136586.353964.7754269.149817.274939.321036.5185975.516951.7309755 1.000976-2.1830487 1.618354-3.612073 1.824146-4.2854267.069147-.2041463.251891-.3062195.563049-.3062195.182744 0 .329268.0444512.467561.1382927.136646.0905488.205793.2057927.205793.3523171 0 .009878 0 .0362195-.013171.0691463-.011524.0362195-.011524.057622-.011524.0658537-.111952.3325609-.258476.7095731-.456037 1.1228048M136.73771 62.7903642c.151463.8462194.265061 1.442195.307866 1.7862804.062561.3539634.082317.819878.082317 1.4109146 0 .4115853-.090549.8495122-.263415 1.3154268-.159695.4593292-.444512.8478658-.823171 1.1787804-.373719.3177439-.854451.4790854-1.429024.4790854-.294695 0-.600915-.0559756-.935122-.1712195-.342439-.1168903-.582805-.2485976-.719451-.409939-.35561-.4033537-.538354-.8840854-.538354-1.4323171 0-.3276219.057622-.6256097.159695-.8890243.118537-.2617683.309513-.3967683.586098-.3967683.169573 0 .307866.0510366.406646.1679268.118537.1267683.164634.2634146.164634.4346341 0 .1152439-.036219.2535366-.11689.4362805-.0675.1794512-.113597.3095122-.125122.3654878.011525.2140244.125122.3984146.332561.5679878.2025.1728659.442866.2551829.717805.2551829.307866 0 .572927-.0707927.77872-.2189634.205792-.149817.377012-.3901829.490609-.6964024.126769-.3210366.195915-.7210975.227195-1.2001829.011525-.1020732.011525-.2387195.011525-.4231097 0-.3539634-.023049-.6848781-.042805-.9696951-.03622-.2864634-.095488-.665122-.174512-1.1343293-.080671-.4642683-.125122-.8445731-.159695-1.1079877-.031281-.2732927-.057622-.602561-.069147-1.002622-.011524-.2634146.04939-.4807317.148171-.6420731.095488-.1580488.207439-.2370732.322683-.2370732.205793 0 .317744.135.342439.4115854.055976.5712804.159695 1.2890853.317744 2.1221341M144.985386 69.3386871c-.102073 0-.192622-.0246951-.271646-.0559756-.070793-.0460975-.141585-.0971341-.172866-.1629878-.046097-.0543292-.090549-.1382926-.126768-.2156707-.031281-.0790244-.069146-.1827439-.113598-.2963414-.284817.2716463-.651951.4906097-1.096463.6503048-.446159.1596951-.915366.2403659-1.38128.2403659-.574574 0-1.061891-.1168903-1.473476-.3539634-.274939-.1629878-.538354-.4231098-.790244-.7425-.250244-.3309146-.457683-.675-.605854-1.0520122-.149817-.3671341-.228841-.6832317-.242012-.959817.026342-.2288415.072439-.3901829.11689-.467561.090549-.1498171.194269-.3671341.307866-.684878.105366-.3095122.242013-.5729268.401708-.7787195.146524-.2057927.411585-.4115854.762256-.6272561.447805-.265061.971341-.4017073 1.56567-.4017073h.334208c.126768-.1218293.248597-.192622.377012-.2057927.273293 0 .627256.139939 1.025671.4247561l.093841-.3786585c.032927-.125122.092195-.2271951.205793-.3062195.113597-.0823171.237073-.1152439.398414-.1152439.17122 0 .342439.0576219.513659.1596951.159695.1037195.240366.2403658.240366.400061 0 .1234756-.034573.3078658-.092195.5367073-.044452.2387195-.079025.4115853-.088903.5136585.009878.1728658.044451.3210366.077378.4478048.034573.125122.090549.3095122.172866.5696342.080671.2617683.136646.4790853.181098.6535975.036219.1794512.059268.3523171.059268.5367073 0 .1333537-.034573.4329878-.10372.8659756.057622.135.125122.342439.205793.6058537.079024.274939.123476.5120121.123476.7309755 0 .1382927-.021403.2288415-.065854.2749391-.138293.1234756-.31939.1942682-.538354.1942682m-.984512-2.7428048c0-.4017073-.110305-.8807926-.352317-1.4520731-.034573-.1234756-.115244-.1909756-.225549-.1909756-.024695 0-.082317.0115244-.171219.0197561-.083964.0131707-.149817.0230488-.205793.0345732-.128414-.0428049-.276585-.1119512-.459329-.2387195-.177805-.1152439-.327622-.1942683-.432988-.2518903-.115244-.0576219-.238719-.0806707-.400061-.0806707-.205792 0-.411585.0477439-.628902.1267683-.227195.0806707-.42311.2057927-.595976.3654878-.172866.1613414-.296341.3407927-.365488.5482317-.019756.0658536-.0675.1613414-.136646.2732927-.077378.1168902-.136646.2057926-.167927.2864634-.037866.0675-.057622.1580487-.069146.2732926.03128.0921952.044451.1596952.044451.1959147.329268 1.3121341.982866 1.9970121 1.944329 2.0118292.431342 0 .86433-.1514634 1.267683-.400061.408293-.2535366.671708-.5169512.800122-.7770731.098781-.2189634.154756-.4593293.154756-.7441464M148.376191 62.9961568c.024695.1152439.044451.2634147.082317.4461586.019756.1695731.032927.2864634.044451.3193902.250244-.2963415.571281-.5943293.956525-.8791463.380305-.2963415.79189-.4807317 1.223232-.5712805.126768 0 .217317.0675.297987.1942683.069147.1366463.105366.2848171.105366.4576829 0 .2387195-.069146.3671341-.197561.4017073-.227195.0559756-.498841.2140244-.821524.4428659-.332561.217317-.627256.4790853-.902195.7869511-.273293.2996342-.444512.5712805-.512012.8363415 0 .5136585-.03622.9268902-.125122 1.2347561-.055976.1926219-.095488.3852438-.116891.5696341-.009878.1942683-.021402.4329878-.021402.7326219 0 .2963415-.013171.535061-.024695.7062805-.009878.1745122-.159695.274939-.469208.3078658-.307865-.0329268-.488963-.1135975-.558109-.2601219-.021403-.0477439-.046098-.2864634-.069147-.7210976.03622-.6733536.069147-1.1425609.092196-1.4043292 0-.1020732-.013171-.2864634-.044452-.5597561.031281-.4000609.100427-.7424999.227195-1.0289634-.046097-.5614024-.136646-1.2462804-.274939-2.044756 0-.1020732.069147-.1942683.205793-.2732927.136646-.0839634.284817-.1152439.446159-.1152439.205792 0 .334207.0543293.377012.1596951.024695.0559757.057622.1399391.079024.2617683M158.098331 62.0266264c0 1.0026219.092195 1.8603658.192622 2.5600609.105366.4000609.161342.6947561.161342.9120731 0 .2057927-.034574.4231098-.113598.675 0 .1135976.019756.3523171.0675.7276829.046098.3704268.069146.6535976.069146.8593902 0 .4461586-.228841.6848781-.696402.7309756-.172866-.0329268-.311159-.1020731-.378659-.217317-.079024-.1119513-.138292-.2732927-.158048-.4906098-.255183.2502439-.595976.4560366-1.009208.6289024-.421463.1613415-.852805.2502439-1.312134.2617683-.375366-.0329268-.650305-.0790244-.798475-.1152439-1.017439-.2584756-1.689147-.9235975-2.013476-1.9871341-.079024-.2716463-.158049-.6387804-.171219-1.0931707-.011525-.5169512.128414-1.017439.357256-1.5245121.21567-.5021342.536707-.9120732.948292-1.2331098.408293-.3177438.890671-.4790853 1.4175-.4790853.205793 0 .502134.0345732.887378.1135976.093842-.0790244.197561-.1135976.28811-.1135976.307866 0 .660183.2057927 1.052012.6058536-.021402-.284817-.047744-.5712804-.070792-.8445731-.023049-.2848171-.034574-.5004878-.046098-.6519512.011524-.1135976.011524-.2057927.023049-.2848171 0-.0938414.013171-.1596951.013171-.217317 0-.0691464.009878-.1498171.009878-.2518903.011524-.1037195.023048-.1942683.023048-.2979878.011525-.2387195.080671-.4214634.205793-.5465853.125122-.1284147.263415-.1827439.421463-.1827439.194269 0 .367135.0675.505427.1959146.136647.135.217317.3062195.205793.5120122-.011524.3095122-.080671.8906707-.080671 1.7484146m-3.345366 1.3121341c-.344085 0-.642073.1135975-.880792.3687805-.240366.2354268-.421464.5367073-.549878.9005487-.126769.3539634-.184391.7194512-.184391 1.075061.046098.3407926.172866.6749999.345732.9812194.182744.3095122.396768.5597561.671707.7441464.265061.1810975.546586.2732926.859391.2732926.100427 0 .204146-.0131707.306219-.0345731.411586-.0921951.786951-.2634147 1.119512-.5004878.342439-.2535366.586098-.54.722744-.882439 0-.5597561-.069146-1.0734146-.207439-1.5393292-.047744 0-.088902.009878-.138292.0197561-.182744-.0345732-.329269-.1267683-.446159-.2732927-.123476-.1382927-.263415-.3095122-.411585-.5169512-.158049-.2057927-.304573-.3490244-.456037-.4231098-.296341-.1317073-.548232-.1926219-.750732-.1926219M162.083959 63.6489312c0 .2634146-.026341.5136585-.059268.7639024-.044451.2403659-.111951.5597561-.192622.9598171-.093842.4000609-.159695.7095731-.194268.9384146-.049391.2271951-.0675.4642683-.0675.7079268 0 .0806707.034573.2370732.079024.4576829.057622.2173171.079024.3868902.079024.5004878 0 .1498171-.069146.274939-.192622.3786585-.138292.0905488-.288109.1481708-.456036.1596951-.54-.0559756-.813293-.4807317-.844573-1.2676829.008231-.2650609.079024-.6865243.177805-1.2479267.093841-.5679878.161341-.9466464.195914-1.142561.032927-.1926219.047744-.4445122.047744-.7425 0-.149817-.026341-.4000609-.047744-.7754268-.009878-.284817.069147-.5004878.195915-.6486585.133353-.1498171.293049-.2189634.477439-.2189634.265061 0 .446158.0921951.549878.2617683.167927.274939.25189.5844512.25189.9153658m.021403-2.8580487c0 .2979878-.03622.5367073-.116891.7095732-.075731.1728658-.250244.2864634-.512012.3407926-.102073 0-.205793-.0543292-.317744-.1679268-.11689-.1152439-.205792-.2535366-.274939-.4033536-.079024-.1481708-.113597-.260122-.113597-.3424391 0-.1004268.054329-.2140243.167926-.3309146.116891-.1251219.253537-.2173171.424757-.2946951.159695-.0790244.296341-.125122.423109-.125122.023049 0 .057622 0 .093842.0082318.019756.009878.042805.009878.042805.009878.126768.0378659.182744.2304878.182744.5959756M165.360508 63.5797849c.686524-.3407927 1.369756-.5136586 2.046402-.5136586.398415 0 .763903.0675 1.096464.1942683.327622.139939.594329.332561.808353.6042073.217317.274939.353964.6190244.411586 1.0190854.01317.1020731.023048.2601219.023048.4906097 0 .192622-.009878.5367073-.046097 1.0421341.023049.3605488.090549.6717073.18439.9235976.10372.2716463.158049.5021341.158049.6618292 0 .207439-.054329.3753659-.17122.5004878-.125122.1366463-.271646.2041463-.45439.2173171-.640427-.0691464-1.028963-.7293293-1.028963-1.9887805 0-.6601829.057622-1.1195121.046097-1.3565853 0-.342439-.126768-.6289024-.35561-.8577439-.21567-.217317-.513658-.342439-.89067-.3325609-.546586.0131707-1.096464.2304878-1.65622.6058536.046098.5745732.069147 1.35.069147 2.3443902 0 .8445731-.023049 1.3582317-.069147 1.5409756-.047744.1959146-.240366.3062195-.584451.3325609-.169573-.014817-.330915-.0576219-.45439-.1284146-.136646-.0790244-.218964-.1728659-.205793-.2716463.079025-1.075061.136647-1.8307317.136647-2.2505488 0-.2979878-.013171-.6766463-.046098-1.1178658-.090549 0-.192622-.0378658-.296341-.1168902-.10372-.0691464-.159696-.1695732-.17122-.3078659.021402-.1827439.102073-.3687804.240366-.5614024-.011525-.0214024-.059268-.1481707-.149817-.3885366-.105366-.2288414-.148171-.409939-.159695-.5251829.021402-.1712195.103719-.3309146.217317-.4790853.126768-.1382927.273292-.2173171.444512-.2173171.192622 0 .353963.0691463.492256.2304878.194268.2140244.307866.4576829.365488.7062805M174.830099 62.6199678c.330915 0 .627256.0460976.889024.1366464.251891.082317.493903.207439.699695.3556097.192622.1481707.40994.342439.614086.5696341.22061.2403659.388536.4132317.50378.5498781.205793.2420122.307866.5004878.307866.7754268 0 .217317-.065853.4115853-.218963.5844512-.135.1695731-.340793.2864634-.600915.3539634-.161341.0345732-.437927.0905488-.798475.1465244-.368781.0691463-.701342.1366463-1.022378.2057926-.30622.0675-.66183.1843903-1.073415.332561-.398415.1465244-.796829.3342073-1.219939.5696341.192622.3556098.45439.6535976.788597.872561.330915.2140244.696403.3753658 1.096464.467561.400061.0905487.823171.1580487 1.267683.1580487.500488 0 1.071768-.0905487 1.735244-.2271951.151463 0 .276585.0559756.377012.1794512.105366.1284147.158049.265061.158049.4264025 0 .2485975-.108659.3984146-.327622.4445121-.665122.1366464-1.302256.2025-1.898232.2025-.81 0-1.575549-.144878-2.283476-.4412195-.721097-.3012804-1.325304-.8116463-1.80439-1.5442682-.013171.009878-.036219.0230488-.057622.0230488-.021402.0131707-.047744.0230487-.054329.0230487-.097134 0-.199207-.0806707-.299634-.2288414-.10372-.1498171-.161342-.2996341-.17122-.4461585.021403-.1596952.079025-.2634147.158049-.3095122-.069146-.2156707-.113597-.477439-.136646-.7869512.013171-.4576829.105366-.9137195.263414-1.3697561.172866-.4593292.432988-.8577439.786952-1.2133536.355609-.3539634.788597-.5910366 1.315426-.6964024.411586-.0790244.755671-.1135976 1.005915-.1135976m1.481707 1.8867073c-.169573-.2206098-.38689-.4115854-.671707-.5844512-.274939-.1843903-.594329-.2732927-.961463-.2732927-.30622 0-.592683.0658537-.854452.1926219-.273292.1234757-.502134.2979878-.696402.5268293-.204146.2156707-.36878.467561-.482378.7556707-.113598.2848171-.17122.5679878-.181098.8659756.009878.0806707.021403.1712195.021403.274939.821524-.3868902 1.564024-.6618292 2.240671-.8462195.158048-.0444512.446158-.1251219.844573-.2271951.400061-.1185366.663475-.1843902.788597-.2189634.115244-.0444512.182744-.0658537.194268-.0889024 0-.0477439-.079024-.1728659-.242012-.3770122M180.928312 63.9222239c.135.0806707.353964.1712195.638781.2634146.274939.1004268.446158.1596951.502134.1827439.502134.1942683.940061.4576829 1.280854.7885975.352317.3210366.605853.6503049.777073.9927439.161341.332561.25189.6173781.240366.8462195-.013171.2403659-.059269.4329878-.116891.5828049-.0675.1481707-.238719.3309146-.500488.5367073-.069146.0576219-.194268.1596951-.342439.3210366-.159695.1712195-.286463.2946951-.388536.3753658-.105366.0921951-.242012.1712195-.413232.2420122-.159695.0790244-.365488.1135975-.582805.1135975-1.256158 0-2.192926-.4692073-2.785609-1.4059755-.032927-.0675-.047744-.1135976-.047744-.1629878 0-.1366464.069146-.2584756.207439-.3737195.133353-.125122.274939-.1810976.400061-.1810976.103719 0 .171219.0329268.217317.0921951.190975.2930488.456036.544939.786951.7523781.321037.2041463.640427.3078658.958171.3193902.195914-.0115244.367134-.0691463.515305-.1613415.136646-.0905487.309512-.2288414.493902-.4115853.179451-.1810976.316098-.3095122.421463-.3868903.080671-.0707926.111952-.1613414.111952-.2732926 0-.1843903-.087256-.4033537-.273293-.6535976-.182744-.2502439-.42311-.4922561-.719451-.7095731-.296342-.2156708-.592683-.3885366-.91372-.4889634-.182744-.0707927-.378658-.1366464-.594329-.2057927-.204146-.0806707-.388537-.1712195-.548232-.2732927-.158048-.1037195-.284817-.2304878-.377012-.3885366-.102073-.1613414-.148171-.3539634-.148171-.5828048 0-.3539634.125122-.6519512.367135-.8906707.250243-.2288415.614085-.3786586 1.106341-.4017073.344085-.0098781.777073.0230487 1.275915.0675.492256.0362195.839634.0938414 1.019085.1514634.059268.0214024.090549.1135975.090549.274939 0 .1366463-.031281.2848171-.098781.4329878-.070792.1465244-.149817.2156707-.230488.2156707-.055975 0-.21567-.0214024-.45439-.0691463-.255183-.0329269-.480732-.0675-.698049-.1004269-.218963-.0214024-.423109-.0345731-.62067-.0345731-.500488 0-.752378.0905488-.775427.2881097 0 .1234756.069146.2255488.218963.3160976M193.025135 61.0893642c0 .1580488-.036219.2979878-.113597.400061-.070793.1135975-.162988.1712195-.274939.1712195-.217318-.0230488-.413232-.0345732-.571281-.0345732-.151463 0-.411585.0345732-.811646.1004268 0 2.0035975.057622 4.0006097.179451 6.0124389.311159.0444512.837988.1135976 1.592012.1942683.102073.0115244.182744.0675.23872.1695731.0675.1053659.092195.2403659.092195.390183 0 .1580487-.034573.2963414-.11689.4115853-.065854.1152439-.17122.1712195-.284818.1712195-.546585-.0559756-1.028963-.1152439-1.425731-.1596951-.400061-.0592683-.847866-.1267683-1.340122-.2173171-.479085-.0905487-.948293-.2057926-1.391159-.342439-.240365-.0691463-.353963-.2535366-.353963-.5383536 0-.1695732.042805-.332561.136646-.4576829.088903-.1135976.217317-.1827439.375366-.1827439.126768 0 .25189.0131707.378659.0477439.111951.0329268.284817.077378.482378.135.2025.0691463.339146.1037195.408292.1251219-.009878-.4329878-.024695-.8330487-.024695-1.1985365-.011524-.3654878-.021402-.6503049-.021402-.867622.021402-1.3944512.046097-2.5452438.046097-3.462256-.079024 0-.146524.0131708-.194268.0230488-.25189-.009878-.469207-.0806707-.63878-.207439-.174513-.1119512-.253537-.2930488-.253537-.535061 0-.1382927.034573-.2485975.102073-.3539634.069147-.1020731.174512-.1629878.297988-.1629878.072439 0 .159695.0131708.297988.0493903.136646.0214024.217317.0428048.242012.0428048.110305 0 .258476-.009878.45439-.0428048.194269-.0362195.377012-.057622.548232-.0921952.172866-.0345731.332561-.0576219.479085-.0658536.159695-.0246951.321037-.0378659.479086-.0378659.322683 0 .586097.0378659.801768.1037195.126768.0345732.18439.1712196.18439.4115854M196.095891 63.5797849c.686525-.3407927 1.369756-.5136586 2.044756-.5136586.398415 0 .765549.0675 1.094817.1942683.332561.139939.594329.332561.811647.6042073.21567.274939.353963.6190244.411585 1.0190854.009878.1020731.023049.2601219.023049.4906097 0 .192622-.013171.5367073-.044452 1.0421341.021403.3605488.088903.6717073.182744.9235976.102074.2716463.158049.5021341.158049.6618292 0 .207439-.055975.3753659-.169573.5004878-.126768.1366463-.276585.2041463-.456037.2173171-.643719-.0691464-1.030609-.7293293-1.030609-1.9887805 0-.6601829.057622-1.1195121.044451-1.3565853 0-.342439-.123476-.6289024-.352317-.8577439-.217317-.217317-.513659-.342439-.892317-.3325609-.548232.0131707-1.096464.2304878-1.654573.6058536.047744.5745732.069146 1.35.069146 2.3443902 0 .8445731-.021402 1.3582317-.069146 1.5409756-.047744.1959146-.240366.3062195-.582805.3325609-.17122-.014817-.330915-.0576219-.457683-.1284146-.136646-.0790244-.217317-.1728659-.205793-.2716463.080671-1.075061.136647-1.8307317.136647-2.2505488 0-.2979878-.009879-.6766463-.046098-1.1178658-.090549 0-.192622-.0378658-.296341-.1168902-.10372-.0691464-.158049-.1695732-.172866-.3078659.024695-.1827439.105366-.3687804.240366-.5614024-.006586-.0214024-.055976-.1481707-.146525-.3885366-.102073-.2288414-.148171-.409939-.161341-.5251829.023048-.1712195.105366-.3309146.217317-.4790853.126768-.1382927.273292-.2173171.447805-.2173171.192622 0 .35067.0691463.488963.2304878.195915.2140244.307866.4576829.367134.7062805M206.491714 60.6423825c0 .1267683-.026341.2403658-.070793.3457317-.055975.1004268-.113597.1481707-.192622.1481707-.342439.0115244-.698048.0806708-1.066829.2173171-.373719.1465244-.591036.3506707-.658536.6256097-.023049.1037195-.046098.2963415-.082317.597622.011524.1004268.023048.2601219.059268.4659146.023049.2173171.032927.3770122.047744.4889634.113597-.0214024.225549-.0428049.342439-.0790244.111951-.0214024.223902-.0428049.35067-.0526829.116891-.0263415.215671-.0378659.284818-.0378659.342439 0 .516951.1843903.516951.5597561 0 .1909756-.069147.332561-.194269.4115854-.126768.0790244-.322682.1481707-.572926.2057926-.250244.0559757-.42311.1053659-.502134.135.011524.1761586.024695.4510976.024695.8248171 0 .4576829-.03622.9252439-.093842 1.4158536-.057622.4807317-.139939.9120732-.227195 1.3104878-.090549.414878-.195915.7243902-.284817.9417073-.070793.1596951-.217317.2387195-.469207.2387195-.151464 0-.274939-.0444512-.378659-.125122-.09878-.0938414-.159695-.2057926-.159695-.3654878.009878-.1152439.080671-.4214634.205793-.9384146.115244-.5120122.205792-.9680487.284817-1.3812804.070792-.4132317.105366-.800122.105366-1.1853658 0-.1613415 0-.2782317-.013171-.3572561-.044451.0214024-.136646.0790244-.273293.1613414-.136646.0773781-.248597.1481708-.342439.1827439-.092195.0329269-.182744.0559756-.274939.0559756-.125122-.0131707-.230488-.0559756-.309512-.1481707-.077378-.0823171-.125122-.1942683-.136646-.3177439.034573-.3918292.411585-.7441463 1.131036-1.0651829-.013171-.1020732-.036219-.207439-.046097-.3160975-.021403-.1168903-.046098-.2222561-.055976-.322683-.023049-.1037195-.034573-.2271951-.060915-.3786585-.008231-.1481707-.019756-.2864634-.029634-.4115853.021403-.3292683.0675-.6157317.136647-.8659756.090548-.3226829.288109-.5959756.559756-.8231707.261768-.2321342.581158-.4115854.946646-.5268293.367134-.1135976.745793-.1695732 1.119512-.1695732.253537 0 .380305.1810976.380305.535061M213.524061 69.3386871c-.102073 0-.192622-.0246951-.274939-.0559756-.0675-.0460975-.133353-.0971341-.169573-.1629878-.044451-.0543292-.092195-.1382926-.125122-.2156707-.034573-.0790244-.070792-.1827439-.113597-.2963414-.28811.2716463-.651951.4906097-1.096464.6503048-.446158.1596951-.917012.2403659-1.384573.2403659-.569634 0-1.058597-.1168903-1.470183-.3539634-.274939-.1629878-.538353-.4231098-.79189-.7425-.248597-.3309146-.45439-.675-.604207-1.0520122-.151464-.3671341-.230488-.6832317-.23872-.959817.021403-.2288415.0675-.3901829.111952-.467561.090548-.1498171.195914-.3671341.307865-.684878.10372-.3095122.243659-.5729268.400061-.7787195.148171-.2057927.413232-.4115854.767195-.6272561.444513-.265061.969696-.4017073 1.562378-.4017073h.334208c.126768-.1218293.250244-.192622.375366-.2057927.276585 0 .630548.139939 1.027317.4247561l.092195-.3786585c.036219-.125122.092195-.2271951.205792-.3062195.113598-.0823171.242013-.1152439.401708-.1152439.169573 0 .340792.0576219.515305.1596951.158048.1037195.237073.2403658.237073.400061 0 .1234756-.034573.3078658-.092195.5367073-.046098.2387195-.079025.4115853-.088903.5136585.009878.1728658.042805.3210366.077378.4478048.034573.125122.093842.3095122.172866.5696342.079024.2617683.136646.4790853.181098.6535975.034573.1794512.057622.3523171.057622.5367073 0 .1333537-.032927.4329878-.102074.8659756.05433.135.126769.342439.205793.6058537.080671.274939.123476.5120121.123476.7309755 0 .1382927-.021403.2288415-.065854.2749391-.136646.1234756-.321037.1942682-.538354.1942682m-.981219-2.7428048c0-.4017073-.113598-.8807926-.353963-1.4520731-.03622-.1234756-.113598-.1909756-.227196-.1909756-.026341 0-.08067.0115244-.172865.0197561-.080671.0131707-.148171.0230488-.207439.0345732-.123476-.0428049-.271647-.1119512-.454391-.2387195-.182744-.1152439-.332561-.1942683-.43628-.2518903-.113598-.0576219-.237073-.0806707-.400061-.0806707-.205793 0-.411585.0477439-.62561.1267683-.228841.0806707-.424756.2057927-.595975.3654878-.17122.1613414-.297988.3407927-.368781.5482317-.01811.0658536-.065854.1613414-.135.2732927-.077378.1168902-.136646.2057926-.169573.2864634-.032927.0675-.055976.1580487-.0675.2732926.034573.0921952.042805.1596952.042805.1959147.329268 1.3121341.986158 1.9970121 1.944329 2.0118292.432988 0 .867622-.1514634 1.266037-.400061.411585-.2535366.678292-.5169512.803414-.7770731.098781-.2189634.158049-.4593293.158049-.7441464M217.292537 63.5797849c.686524-.3407927 1.371402-.5136586 2.048049-.5136586.396768 0 .763902.0675 1.094817.1942683.332561.139939.594329.332561.81.6042073.218963.274939.353963.6190244.411585 1.0190854.013171.1020731.023049.2601219.023049.4906097 0 .192622-.009878.5367073-.042805 1.0421341.019756.3605488.087256.6717073.181097.9235976.10372.2716463.158049.5021341.158049.6618292 0 .207439-.054329.3753659-.169573.5004878-.126768.1366463-.274939.2041463-.457683.2173171-.640427-.0691464-1.028963-.7293293-1.028963-1.9887805 0-.6601829.055975-1.1195121.046097-1.3565853 0-.342439-.126768-.6289024-.353963-.8577439-.215671-.217317-.515305-.342439-.890671-.3325609-.549878.0131707-1.098109.2304878-1.657866.6058536.044452.5745732.070793 1.35.070793 2.3443902 0 .8445731-.026341 1.3582317-.070793 1.5409756-.044451.1959146-.238719.3062195-.582804.3325609-.17122-.014817-.332561-.0576219-.456037-.1284146-.138293-.0790244-.218963-.1728659-.205793-.2716463.079025-1.075061.133354-1.8307317.133354-2.2505488 0-.2979878-.006585-.6766463-.042805-1.1178658-.090549 0-.192622-.0378658-.296341-.1168902-.102074-.0691464-.159695-.1695732-.17122-.3078659.024695-.1827439.10372-.3687804.242012-.5614024-.011524-.0214024-.059268-.1481707-.151463-.3885366-.102073-.2288414-.148171-.409939-.159695-.5251829.024695-.1712195.105366-.3309146.217317-.4790853.126768-.1382927.274939-.2173171.446158-.2173171.194269 0 .353964.0691463.49061.2304878.194268.2140244.309512.4576829.365488.7062805M225.082201 62.2645227c.046098.0115244.10372.0246951.159695.0246951.059269.0098781.10372.0098781.126769.0214025.136646-.0115244.31939-.057622.55811-.1382927.230487-.0889025.367134-.135.401707-.1465244.100427 0 .167927.0576219.228841.1596951.0675.1037195.087256.2387195.087256.3885366 0 .265061-.121829.4445122-.372073.5383536-.240366.0905488-.546585.1465244-.903841.1596952-.055976-.0131708-.138293-.0230488-.218964-.0230488 0 .5581097-.021402 1.3368292-.0675 2.3410975-.034573 1.0059146-.0675 1.712195-.0675 2.1254267.009878.1119513.023049.2996342.023049.5367073 0 .0921952-.057622.1728659-.169573.2271952-.11689.0609146-.255183.0938414-.414878.1053658-.294695-.0345732-.432988-.1053658-.442866-.2288414-.011524-.2749391-.059268-.6289025-.069146-1.0635366-.013171-.4214634.021402-1.0404878.069146-1.8521341.044451-.81.0675-1.4026829.0675-1.769817v-.5811585c-.365488-.1152439-.777073-.1728659-1.24628-.1728659-.243659 0-.365488-.1596951-.365488-.4922561 0-.1810975.046097-.3078658.146524-.3753658.10372-.0559756.250244-.0921951.457683-.0921951.357256 0 .651951.0362195.892317.1152439-.034573-.4790854-.169573-1.0981098-.400061-1.8768293 0-.135.0675-.2370731.205793-.3160975.135-.0823171.296341-.1152439.467561-.1152439.194268 0 .309512.0460975.334207.1366463.25189.8577439.431342 1.6446951.512012 2.3641463M229.948787 63.6489312c0 .2634146-.024696.5136585-.057622.7639024-.047744.2403659-.115244.5597561-.194269.9598171-.090548.4000609-.158048.7095731-.194268.9384146-.047744.2271951-.0675.4642683-.0675.7079268 0 .0806707.034573.2370732.079024.4576829.055976.2173171.080671.3868902.080671.5004878 0 .1498171-.070792.274939-.194268.3786585-.138293.0905488-.286464.1481708-.456037.1596951-.54-.0559756-.813292-.4807317-.846219-1.2676829.013171-.2650609.079024-.6865243.181097-1.2479267.092196-.5679878.159696-.9466464.194269-1.142561.036219-.1926219.046097-.4445122.046097-.7425 0-.149817-.024695-.4000609-.046097-.7754268-.011525-.284817.0675-.5004878.194268-.6486585.136646-.1498171.296341-.2189634.480732-.2189634.263414 0 .446158.0921951.548231.2617683.169574.274939.251891.5844512.251891.9153658m.021402-2.8580487c0 .2979878-.034573.5367073-.115244.7095732-.079024.1728658-.248597.2864634-.512012.3407926-.102073 0-.205793-.0543292-.31939-.1679268-.116891-.1152439-.205793-.2535366-.274939-.4033536-.080671-.1481708-.113598-.260122-.113598-.3424391 0-.1004268.054329-.2140243.169573-.3309146.116891-.1251219.253537-.2173171.424756-.2946951.159696-.0790244.294696-.125122.419817-.125122.026342 0 .057622 0 .092196.0082318.024695.009878.047743.009878.047743.009878.125122.0378659.181098.2304878.181098.5959756M233.19175 61.8787849c0 .6980488.021402 1.3467073.080671 1.9410365.044451.592683.125122 1.2462805.227195 1.9640854.102073.7227438.181097 1.2100609.21567 1.494878.034574.2881097.059269.5844512.059269.8807926 0 .2288415-.034573.4132317-.105366.5597561-.0675.1366463-.204146.2189634-.409939.2420122-.169573-.0115244-.31939-.0806707-.467561-.2057927-.136646-.1234756-.204146-.2617683-.204146-.4231097 0-.3177439-.070793-.8890244-.209086-1.7368902-.136646-.8445732-.237073-1.5985975-.317744-2.2489024-.079024-.6634756-.146524-1.427378-.138292-2.2966463.011524-.4906097.036219-.8462195.047744-1.0767073 0-.2288414.0675-.4000609.179451-.5235365.11689-.1135976.253536-.1728659.413231-.1728659.182744 0 .344086.0592683.467561.1629878.126769.0905488.182744.2288415.182744.3737195-.011524.4329878-.021402.7902439-.021402 1.0651829M239.072811 62.6199678c.332561 0 .628902.0460976.89067.1366464.251891.082317.493903.207439.699696.3556097.192621.1481707.409939.342439.615731.5696341.217317.2403659.388537.4132317.502134.5498781.205793.2420122.307866.5004878.307866.7754268 0 .217317-.065853.4115853-.215671.5844512-.136646.1695731-.340792.2864634-.604207.3539634-.161341.0345732-.437927.0905488-.800122.1465244-.367134.0691463-.698048.1366463-1.019085.2057926-.307866.0675-.661829.1843903-1.073415.332561-.398414.1465244-.800122.3342073-1.223231.5696341.195914.3556098.456036.6535976.788597.872561.332561.2140244.696403.3753658 1.096464.467561.403353.0905487.82317.1580487 1.269329.1580487.502134 0 1.071768-.0905487 1.738536-.2271951.146525 0 .271647.0559756.375366.1794512.10372.1284147.158049.265061.158049.4264025 0 .2485975-.113598.3984146-.330915.4445121-.665122.1366464-1.302256.2025-1.896585.2025-.81 0-1.577195-.144878-2.283476-.4412195-.719451-.3012804-1.323658-.8116463-1.806036-1.5442682-.008232.009878-.032927.0230488-.057622.0230488-.019756.0131707-.047744.0230487-.055976.0230487-.092195 0-.195914-.0806707-.297987-.2288414-.102074-.1498171-.159696-.2996341-.17122-.4461585.023049-.1596952.077378-.2634147.161342-.3095122-.0675-.2156707-.111952-.477439-.138293-.7869512.011524-.4576829.103719-.9137195.260122-1.3697561.174512-.4593292.43628-.8577439.79189-1.2133536.353963-.3539634.786951-.5910366 1.31378-.6964024.411586-.0790244.752379-.1135976 1.004269-.1135976m1.486646 1.8867073c-.171219-.2206098-.390183-.4115854-.675-.5844512-.273293-.1843903-.592683-.2732927-.959817-.2732927-.307866 0-.592683.0658537-.856098.1926219-.274939.1234757-.502134.2979878-.696402.5268293-.205793.2156707-.367134.467561-.479085.7556707-.118537.2848171-.174512.5679878-.186037.8659756.011525.0806707.024695.1712195.024695.274939.823171-.3868902 1.565671-.6618292 2.239025-.8462195.159695-.0444512.446158-.1251219.846219-.2271951.398415-.1185366.661829-.1843902.786951-.2189634.116891-.0444512.18439-.0658537.195915-.0889024 0-.0477439-.079024-.1728659-.240366-.3770122M245.401018 63.9222239c.136646.0806707.353963.1712195.640427.2634146.273292.1004268.444512.1596951.502134.1827439.500488.1942683.936768.4576829 1.280853.7885975.350671.3210366.604208.6503049.773781.9927439.162988.332561.253537.6173781.242012.8462195-.011524.2403659-.059268.4329878-.115244.5828049-.0675.1481707-.240366.3309146-.502134.5367073-.069146.0576219-.192622.1596951-.344085.3210366-.158049.1712195-.281525.2946951-.385244.3753658-.105366.0921951-.242012.1712195-.413232.2420122-.158049.0790244-.367134.1135975-.582805.1135975-1.259451 0-2.194573-.4692073-2.788902-1.4059755-.032927-.0675-.044451-.1135976-.044451-.1629878 0-.1366464.065853-.2584756.204146-.3737195.139939-.125122.274939-.1810976.400061-.1810976.10372 0 .172866.0329268.218963.0921951.190976.2930488.456037.544939.786952.7523781.317743.2041463.640426.3078658.963109.3193902.18933-.0115244.363842-.0691463.512013-.1613415.135-.0905487.307865-.2288414.487317-.4115853.186036-.1810976.322682-.3095122.426402-.3868903.079024-.0707926.113598-.1613414.113598-.2732926 0-.1843903-.090549-.4033537-.274939-.6535976-.181098-.2502439-.421464-.4922561-.717805-.7095731-.297988-.2156708-.59433-.3885366-.915366-.4889634-.181098-.0707927-.375366-.1366464-.594329-.2057927-.205793-.0806707-.386891-.1712195-.548232-.2732927-.162988-.1037195-.284817-.2304878-.378659-.3885366-.100426-.1613414-.14817-.3539634-.14817-.5828048 0-.3539634.126768-.6519512.363841-.8906707.255183-.2288415.620671-.3786586 1.111281-.4017073.344085-.0098781.778719.0230487 1.277561.0675.492256.0362195.836341.0938414 1.020731.1514634.057622.0214024.088903.1135975.088903.274939 0 .1366463-.031281.2848171-.098781.4329878-.070793.1465244-.15311.2156707-.23378.2156707-.05433 0-.214025-.0214024-.454391-.0691463-.253536-.0329269-.480731-.0675-.696402-.1004269-.217317-.0214024-.42311-.0345731-.617378-.0345731-.503781 0-.754024.0905488-.777073.2881097 0 .1234756.0675.2255488.217317.3160976M52.5892486 55.2321753c0 .1893293-.062561.3605488-.1860366.5120122-.1234756.1547561-.3276219.274939-.612439.3737195-.284817.0954878-.6667683.1695732-1.1409146.2255488-.4741463.0576219-1.0832926.0856097-1.8224999.0856097-.7243903 0-1.3285976-.0279878-1.8126219-.0856097-.4840244-.0559756-.867622-.130061-1.1557317-.2255488-.2831707-.0987805-.4873171-.2189634-.6091463-.3737195-.125122-.1514634-.1860366-.3226829-.1860366-.5120122v-34.829999c0-.1893293.0609146-.3605488.1860366-.5136586.1218292-.1531097.3309146-.2732926.627256-.3704268.2930488-.0938415.6766464-.1695732 1.1507927-.2271951.477439-.057622 1.0750609-.0856098 1.7994512-.0856098.7392073 0 1.3483536.0279878 1.8224999.0856098.4741463.0576219.8560976.1333536 1.1409146.2271951.2848171.0971342.4889634.2173171.612439.3704268.1234756.1531098.1860366.3243293.1860366.5136586v34.829999z"/>
    <g transform="translate(44.451218 18.529134)">
      <mask id="d" fill="#fff">
        <use xlink:href="#c"/>
      </mask>
      <path fill="#FBD016" d="M9.20090829 29.3025724H-.15854268l.05926829 8.6630485h9.35780463z" mask="url(#d)"/>
    </g>
    <g fill="#5B5B5E">
      <path d="M87.659284 53.6357184c0 .4379269-.0757317.8281098-.2271951 1.1689024-.1547561.3424391-.3572561.6289025-.6140853.8560976-.2568293.2288414-.5597561.3934756-.9087805.5004878-.3539634.1004268-.7079268.1547561-1.0717683.1547561h-3.192256c-.6651219 0-1.2396951-.0658537-1.7253658-.197561-.4840243-.135-.9301829-.3786585-1.3384755-.7309756-.4099391-.3490244-.8034147-.8264634-1.1820732-1.4207926-.3819512-.6009147-.8083536-1.3746951-1.2841463-2.3262805l-9.18164609-17.24378c-.53176828-1.0256707-1.07506095-2.1320121-1.62493898-3.3190243-.55152438-1.1853658-1.0454268-2.3410975-1.48170728-3.46390235h-.05926829c.07902439 1.36810975.13335365 2.73292675.17451219 4.09280475.03621951 1.3582317.05432927 2.7576219.05432927 4.2014633v19.2967678c0 .1876829-.05103659.3605488-.15804878.5120122-.10371951.1498171-.28317072.2831707-.53835364.3852439-.25682927.1053658-.60585365.1843902-1.04048778.2420122-.43957316.0576219-.99932924.0839634-1.68256093.0839634-.66512194 0-1.21499997-.0263415-1.65292679-.0839634-.43792682-.057622-.78036583-.1366464-1.0256707-.2420122-.24695122-.1020732-.4214634-.2354268-.51365853-.3852439-.0954878-.1514634-.1432317-.3243293-.1432317-.5120122V22.05395098c0-.89067071.26176829-1.56073167.78365852-2.00689019.52189023-.44615853 1.16396338-.67006096 1.92457312-.67006096h4.0187194c.72109754 0 1.33024387.06091463 1.82579264.18603658.49225608.12347561.93347558.3259756 1.32365845.61243901.3868903.28317072.7556708.67993901 1.0981098 1.18371948.342439.50378048.6914634 1.12445119 1.0553048 1.86365849L76.457577 36.708036c.4165244.8165853.8314024 1.6216463 1.2396951 2.4085975.409939.7885975.805061 1.5788414 1.1837195 2.3657926.3770122.7885975.7490853 1.5607316 1.1096341 2.3213414.3638415.7622561.7128658 1.5212194 1.0553049 2.2818292h.0296341c-.0559756-1.3318902-.0987805-2.7164634-.1284146-4.1603048-.0296342-1.4454877-.0428049-2.8234755-.0428049-4.1339633V20.48828029c0-.18932926.0592683-.36219511.1712195-.51365852.1135976-.15146341.3045732-.28481707.5696341-.39841463.2667073-.11359756.6173781-.19426829 1.0536585-.24036584.4346342-.04939025.9976829-.07408537 1.6842073-.07408537.6437195 0 1.1853658.02469512 1.6232927.07408537.4379268.04609755.7737804.12676828 1.0124999.24036584.2337805.11359756.4033537.24695122.4988415.39841463.0921951.15146341.1415853.32432926.1415853.51365852V53.6357184zM119.8722588 22.45648146c0 .54987803-.0230488 1.02073168-.0707927 1.40926825-.0493902.39018292-.1168902.70463413-.212378.94170729-.0971342.23707317-.2140244.4132317-.3572561.52682926-.1432317.11359756-.2979878.17121951-.4692073.17121951h-9.2376217V55.2318464c0 .1893293-.062561.3621952-.1827439.5136586-.1234756.1514634-.327622.274939-.6140854.3704268-.284817.0971341-.6700609.1712195-1.1540853.2271951-.4856707.057622-1.089878.0856098-1.8109756.0856098-.7227439 0-1.3253048-.0279878-1.8076828-.0856098-.4873171-.0559756-.8709147-.130061-1.1573781-.2271951-.284817-.0954878-.4889634-.2189634-.612439-.3704268-.1234756-.1514634-.1860366-.3243293-.1860366-.5136586V25.50550577h-9.234329c-.1909756 0-.352317-.05762195-.4840244-.17121951-.1317073-.11359756-.2469512-.28975609-.342439-.52682926-.0938414-.23707316-.1646341-.55152437-.2140244-.94170729-.0460975-.38853657-.0707926-.85939022-.0707926-1.40926825 0-.57457316.0246951-1.05695119.0707926-1.45536582.0493903-.39841462.120183-.71615852.2140244-.95323168.0954878-.23871951.2107317-.40993901.342439-.51530486.1317074-.10207317.2930488-.1547561.4840244-.1547561h25.9973774c.1712195 0 .3259756.05268293.4692073.1547561.1432317.10536585.2601219.27658535.3572561.51530486.0954878.23707316.1629878.55481706.212378.95323168.0477439.39841463.0707927.88079266.0707927 1.45536582"/>
    </g>
    <g transform="translate(91.646339 18.529134)">
      <mask id="f" fill="#fff">
        <use xlink:href="#e"/>
      </mask>
      <path fill="#0360A8" d="M9.17231683 37.9646331h9.36274367v-8.6679875H9.17231683z" mask="url(#f)"/>
    </g>
    <g fill="#5B5B5E">
      <path d="M145.7940688 53.3239014c0 .549878-.0214024 1.0075609-.0691463 1.3812804-.0493903.3671342-.1185366.6717073-.2123781.8989024-.0954878.2239025-.2156707.395122-.357256.4971951-.1448781.1053659-.2979878.1564025-.4708537.1564025h-18.52792633c-.62890242 0-1.152439-.1860366-1.58378045-.5581098-.42310974-.3671341-.64042681-.9696951-.64042681-1.8076828V21.74213391c0-.83469509.21731707-1.44054874.64042681-1.80932922.43134145-.37042681.95487803-.55481705 1.58378045-.55481705h18.41432873c.1712196 0 .322683.04609756.4560366.14158536.1317073.09384146.2469512.26176828.3407927.49884145.0954878.2387195.1662805.54329267.2156707.91371949.0460976.36713413.0707927.84128046.0707927 1.40926825 0 .53341462-.0246951.98121949-.0707927 1.35493899-.0493902.37042682-.1201829.66841462-.2156707.89560973-.0938415.22884146-.2090854.39512194-.3407927.50048779-.1333536.10536586-.284817.1547561-.4560366.1547561h-13.16908497v9.0087802h11.14408507c.1712195 0 .3292683.052683.4708536.1580488.1415854.1037195.2617683.2667073.3589025.4840244.0921951.2189634.1613414.5136585.212378.8857317.0460976.3671341.0707927.8182317.0707927 1.3532926 0 .5498781-.0246951 1.0042683-.0707927 1.3664634-.0510366.3605488-.1201829.6519512-.212378.8676219-.0971342.2206098-.2173171.3786586-.3589025.4708537-.1415853.0971341-.2996341.1432317-.4708536.1432317h-11.14408507V50.390121h13.28268257c.1728659 0 .3259756.0526829.4708537.1564024.1415853.1037195.2617682.27.357256.4955488.0938415.2288414.1629878.5268292.2123781.897256.0477439.3720732.0691463.8330488.0691463 1.3845732M180.2852508 25.10610334c0 .54987803-.0230487 1.0256707-.0707926 1.42408533-.0444513.40006096-.1119513.7194512-.1992074.95487802-.0856097.23871951-.1909756.40499999-.3128048.50048779-.1234756.0954878-.2716464.14158536-.4428659.14158536-.2436585 0-.6437195-.16957316-1.1968902-.51201218-.549878-.34408535-1.2824999-.71286583-2.1945731-1.1129268-.9120731-.39676828-1.9970121-.76884144-3.2630487-1.11128046-1.2627439-.34243901-2.7345731-.51365852-4.4039633-.51365852-1.7862804 0-3.4029877.30951219-4.8468291.92689022-1.4421951.61737803-2.6769512 1.49323167-3.7042682 2.62262188-1.0256707 1.13103652-1.8159146 2.49091452-2.3657926 4.07634132-.5515244 1.5870732-.8297561 3.3387804-.8297561 5.2584145 0 2.1106097.2815244 3.9676829.8445731 5.5745121.5581098 1.6035365 1.3434146 2.9485975 2.3509756 4.0302438 1.0059146 1.084939 2.2176219 1.9031707 3.6351218 2.454695 1.4158537.5498781 2.9782317.8248171 4.6871341.8248171.8363414 0 1.6628048-.0954878 2.4810365-.2848171.814939-.1893292 1.5771951-.4741463 2.2785365-.8560975v-8.5510974h-6.982134c-.342439 0-.6107926-.2140243-.7984755-.6404268-.1893293-.4280487-.2864635-1.1557316-.2864635-2.1814023 0-.530122.0246952-.9762805.0740854-1.3384756.0460976-.3621951.1152439-.6503049.2123781-.8692683.0954878-.2206097.2090853-.3803049.3440853-.4856707.130061-.1037195.2831707-.1547561.4543902-.1547561h12.4545729c.3062195 0 .5778658.0510366.8165853.1547561.2370732.1053658.4445122.2617683.6256098.4708536.1778048.2057927.3177439.4609756.4132317.7556707.0921951.2946952.1415853.6305488.1415853 1.0125v14.6754874c0 .5696342-.0987805 1.0717683-.2979878 1.4981707-.2008536.4264025-.6107926.7639024-1.2281707 1.0092073-.617378.2485976-1.3812804.5037805-2.2949999.7721341-.9104268.2667074-1.8570731.4922561-2.8333536.6832317-.9779268.1909756-1.967378.3309147-2.9650609.4264025-.9993292.0954878-2.0003048.1432317-3.0078658.1432317-2.9436584 0-5.5827437-.4247561-7.9090241-1.2676829-2.3279268-.8462195-4.3018902-2.0727439-5.9169511-3.6779268-1.6134146-1.6035365-2.849817-3.5593901-3.7042682-5.8692071-.8560975-2.3081707-1.2841463-4.9258536-1.2841463-7.8530486 0-3.0193902.4560366-5.7325608 1.3697561-8.1378656.9137194-2.40365851 2.2044511-4.44512187 3.8754877-6.12932914 1.6710365-1.68091459 3.6927438-2.96670724 6.0601827-3.86231697 2.3657926-.89231705 4.9982926-1.33847557 7.9073779-1.33847557 1.5969511 0 3.0506706.10865853 4.3611584.32762194 1.3121341.22060975 2.4596341.48567072 3.4342682.79847559.9779268.31280487 1.7912194.65030486 2.4365853 1.01085363.6453658.36384145 1.0981097.67499998 1.354939.94170729.2568292.26670731.4412195.64207315.5564634 1.12445119.1135975.48567072.1695731 1.20347558.1695731 2.15341458M212.26675 55.2917733c0 .207439-.0378659.3803048-.1135976.5235365-.0740853.1432317-.2568292.2634147-.5416463.3556098-.2831707.0971341-.7029878.1646341-1.2545122.1992073-.549878.0411585-1.3006097.0576219-2.2505487.0576219-.8001219 0-1.4339634-.0164634-1.9114024-.0576219-.4741463-.0345732-.8495121-.1086585-1.1228048-.2107317-.2765854-.1053659-.4725-.2370732-.5877439-.3984146-.1152439-.1629878-.2090854-.3605488-.2815244-.5844512l-3.3091462-8.2366462c-.3984147-.9301829-.7902439-1.7582926-1.1672561-2.4810365-.3786585-.7210975-.8017683-1.3236585-1.2693292-1.8060365-.4659147-.4873171-1.002622-.8511585-1.6101219-1.1014024-.6091464-.2453049-1.3104878-.3671342-2.1089634-.3671342h-2.3378048V55.232505c0 .1893292-.0609147.3605487-.1876829.5103658-.1218293.1564025-.327622.274939-.6107927.3753659-.2831707.0954878-.6651219.1679268-1.1392683.2255487-.4757926.057622-1.084939.0839634-1.8257926.0839634-.7210976 0-1.3236585-.0263414-1.8093292-.0839634-.4840244-.0576219-.8692683-.1300609-1.1540854-.2255487-.284817-.1004269-.482378-.2189634-.6009146-.3753659-.1135975-.1498171-.1679268-.3210366-.1679268-.5103658V21.74427416c0-.83798778.2140244-1.44054874.6420731-1.8126219.4247561-.36878048.9548781-.55317072 1.5804878-.55317072h9.5471339c.9713414 0 1.769817.01646341 2.3954268.05432926.627256.0395122 1.1985365.08560976 1.7089024.14323171 1.4866463.2107317 2.8185365.56963413 4.0039023 1.08329265 1.1919512.51201218 2.1978658 1.18371948 3.0243292 2.01018288.8281097.82810973 1.4586585 1.80603653 1.8932926 2.93707309.4412195 1.12939021.6568902 2.42506091.6568902 3.89030477 0 1.2347561-.1564024 2.3608536-.4692073 3.3766463-.3144512 1.017439-.7721341 1.9245731-1.3812804 2.7214023-.6091463.7984756-1.359878 1.4932317-2.2521951 2.0826219-.892317.5877439-1.9114024 1.0651829-3.052317 1.4240853.5515244.2667074 1.070122.5877439 1.5541463.9696951.4856708.3770122.9433537.8412805 1.3697561 1.3829268.4264024.5416464.8297561 1.1590244 1.2100609 1.8521341.3786586.6947561.7523781 1.4784146 1.1129268 2.3493292l3.105 7.2685974c.2864634.7227439.4757926 1.2462805.5696341 1.5788414.0987805.3358537.1432317.597622.1432317.7885976m-9.6607315-25.0276823c0-1.2133536-.2782317-2.23902432-.8264634-3.07701211-.5515243-.83634144-1.4520731-1.42573167-2.7098779-1.76817068-.3803049-.09384146-.8132927-.17121951-1.2973171-.22884146-.4840243-.05432927-1.1540853-.08396341-2.0101828-.08396341h-3.3618292V35.5669567h3.8195121c1.0618902 0 1.9953658-.130061 2.792195-.3835975.7984756-.2568293 1.4652439-.6173781 1.9953658-1.0832927.5317683-.4659146.9334756-1.022378 1.1985366-1.6693902.2650609-.6453658.4000609-1.3664634.4000609-2.1665853"/>
    </g>
    <g transform="translate(184.390239 18.529134)">
      <mask id="h" fill="#fff">
        <use xlink:href="#g"/>
      </mask>
      <path fill="#DF3318" d="M-.14981707 37.9646331H9.2096339v-8.6679875H-.14981707z" mask="url(#h)"/>
    </g>
    <path fill="#5B5B5E" d="M248.256432 53.4653218c.228842.6832316.37372 1.224878.428049 1.6249389.057622.3984147-.01811.6996951-.227195.8989025-.210732.1975609-.579512.3210365-1.112927.3687804-.530122.0477439-1.262744.0707927-2.196219.0707927-.968049 0-1.72372-.0148171-2.26372-.0395122-.541646-.0312805-.953231-.0872561-1.241341-.1745122-.281524-.0839634-.484024-.2041463-.597622-.3539634-.111951-.1547561-.207439-.352317-.286463-.6009146l-2.479391-7.40689h-13.852316l-2.339451 7.209329c-.075732.265061-.172866.4889634-.296342.6684146-.123475.1810976-.325975.322683-.599268.4296952-.274939.1004268-.665122.1745121-1.168903.2107317-.50378.0395122-1.163963.0576219-1.982195.0576219-.872561 0-1.554146-.0279878-2.051341-.0856097-.492256-.0559757-.836341-.1942683-1.028963-.4132317-.187683-.2173171-.251891-.5284756-.195915-.9268903.055976-.3984146.195915-.9285365.428049-1.5936585l11.372926-32.722682c.115244-.3226829.248598-.5844512.396769-.7836585.154756-.1992073.395121-.3490244.727682-.4560366.334208-.1020732.793537-.1695732 1.384574-.1992073.587743-.0279878 1.368109-.0428049 2.336158-.0428049 1.121159 0 2.015122.0148171 2.680244.0428049.663475.0296341 1.182073.0971341 1.5525.1992073.372073.1070122.637134.2634146.798475.4708536.159696.2090854.301281.4955488.413232.8544512l11.400914 32.693048zM231.32875 26.4159322h-.029634l-5.218902 15.6797557h10.462499l-5.213963-15.6797557z"/>
    <g transform="translate(214.024385 18.529134)">
      <mask id="j" fill="#fff">
        <use xlink:href="#i"/>
      </mask>
      <path fill="#7DB520" d="M34.7705662 29.3154139H23.1819689l1.4076219 8.6498778h11.5918899z" mask="url(#j)"/>
    </g>
  </g>
</svg>
