<?xml version="1.0" encoding="UTF-8"?>
<svg xmlns="http://www.w3.org/2000/svg" xmlns:xlink="http://www.w3.org/1999/xlink" width="250" height="72" viewBox="0 0 250 72">
  <defs>
    <path id="a" d="M.50924501.13035H12.2357953v11.2819119H.50924501z"/>
    <path id="c" d="M2.58390006.76395002c-.47685001.0561-.86295002.132-1.15335003.231-.29700001.09405-.50655001.21615001-.63030001.36960001-.12375.1518-.18645.32505001-.18645.51150001V36.7851008c0 .18975.0627.3597.18645.51315.12375.1551.32835.27555.61215001.37455.28875001.09405.67155002.16995 1.15830003.2244.48510001.05775 1.09065002.08745 1.81500004.08745.74250001 0 1.35465002-.0297 1.82985003-.08745.47520002-.05445.85470002-.13035 1.14180003-.2244.28215001-.099.49005001-.21945.61050001-.37455.12705001-.15345.18810001-.3234.18810001-.51315V1.87605004c0-.18645-.06105-.35970001-.18810001-.51150001-.12045-.15345-.32835-.27555001-.61050001-.3696C7.07025015.89595001 6.69075015.82005001 6.21555013.76395001c-.47520001-.0594-1.08735002-.08415-1.82985003-.08415-.72435002 0-1.32330003.02475-1.80180004.08415z"/>
    <path id="e" d="M1.12090002.84975002c-.1914 0-.3531.0528-.4851.15675-.132.1056-.24420001.27555001-.34320001.51315001-.0957.24090001-.16665.55770002-.21285.95865002C.03355 2.87925006.0055 3.36270007.0055 3.93525009c0 .55110001.02805 1.02465002.07425 1.41240003.0462.3927.11715.70785001.21285.94545002.099.23595.21120001.41415001.34320001.52470001.132.11715.29370001.17325.48510001.17325h9.25485018V36.7851008c0 .18975.06435.3597.18645.51315.12375.1551.33.27555.61545.37455.2871.09405.6699001.16995 1.1583001.2244.4851.05775 1.08735.08745 1.81335.08745.7194 0 1.32825-.0297 1.81335-.08745.4834501-.05445.8695501-.13035 1.1566501-.2244.28875-.099.49005-.21945.61545-.37455.12045-.15345.1848-.3234.1848-.51315V6.99105015h9.2565002c.16995 0 .32835-.0561.4686-.17325.1452-.11055.264-.28875001.3597-.52470001.0957-.23760001.165-.55275002.2145-.94545002.0462-.38775001.07095-.86130002.07095-1.41240003 0-.57255002-.02475-1.05600003-.07095-1.45695004-.0495-.40095-.1188-.71775001-.2145-.95865002-.0957-.2376-.2145-.40755001-.3597-.51315001-.14025-.10395-.29865-.15675-.4686-.15675H1.12090002z"/>
    <path id="g" d="M2.74560006.84975002c-.63195001 0-1.15830003.18645-1.58730003.55770001-.43065001.37125001-.64185002.97680002-.64185002 1.81335004V36.7851008c0 .18975.05445.3597.1683.51315.11715.1551.31515001.27555.60225002.37455.2838.09405.67155001.16995 1.15500002.2244.48510001.05775 1.09230003.08745 1.81665004.08745.74085002 0 1.34970003-.0297 1.82820004-.08745.47520001-.05445.85800002-.13035 1.14015003-.2244.28545-.099.49005001-.21945.61545001-.37455.1221-.15345.18645-.3234.18645-.51315V22.7056505h2.33970003c.8019 0 1.5064501.12045 2.1153001.3696.6105.2475 1.1484.61545 1.6137 1.10055.47025.4851.89265 1.09065 1.2738 1.8117001.37785.726.77055 1.55595 1.1698501 2.4849l3.31485 8.2549502c.07425.2277.1683.42405.28215.5874.11715.1617.31185.2937.5907.40095.2739001.10065.6517501.17325 1.1269501.2112.4752.03795 1.1121.05775 1.91235.05775.9537 0 1.7044501-.0198 2.2572001-.05775.55275-.03795.9735-.1056 1.254-.2013.2871-.09405.4719-.2112.5445-.35475.07755-.14355.1122-.3201.1122-.528 0-.1914-.04455-.45375-.1419-.78705-.0924-.3333-.28215-.85965-.56925-1.5873001l-3.1135501-7.2798001c-.36135-.8745-.73425-1.66155-1.1154-2.3595001-.37785-.693-.7821-1.3101-1.2111-1.8546-.429-.5412-.8877-1.00485-1.3744501-1.38435-.48345-.38115-1.0032-.70455-1.55595-.9718501 1.14345-.36135 2.1615001-.8382 3.0591001-1.4289.8943-.5874 1.6467-1.2837 2.25555-2.0856.6105-.80025 1.0692-1.7077501 1.3860001-2.7291001.3135-1.01805.47025-2.14335.47025-3.3858001 0-1.46354999-.21945-2.76375002-.6600001-3.89565005-.4356-1.13520002-1.06755-2.11530004-1.89915-2.94525006-.82665-.82830002-1.8348-1.49820003-3.0294001-2.01300004-1.188-.51315001-2.52285-.87780002-4.0128-1.08735003-.5098501-.0528-1.0824001-.1023-1.7094001-.1419-.63195-.0363-1.4289-.0561-2.4024-.0561H2.74560006zm5.28330011 5.74200012h3.36930003c.8580001 0 1.5279001.0297 2.0130001.0858.4884.05610001.9207.13365001 1.3035.22935001 1.25565.34155001 2.1615001.93225002 2.7142501 1.76880004.54945.83820002.8283 1.86780001.8283 3.08385011 0 .8019-.1353 1.5246-.4026 2.17305s-.66825 1.2045-1.2012 1.67145c-.5296501.4686-1.1979001.8299501-1.9998001 1.0873501-.79695.25575-1.7325.38445-2.7984.38445H8.02890017V6.59175014z"/>
    <path id="i" d="M15.0843003.72105002c-.59235.0297-1.0527.0957-1.39095.198-.33165.10725-.5709.25740001-.726.46035001-.15015.19635-.28215.46035001-.40095.78375002L1.17150003 34.9569008c-.23265001.6666-.37125001 1.2012-.42735001 1.6005-.0594.39765.00495.7095.1947.92565.19305.2211.53790001.3597 1.03290002.41415.49335001.05775 1.17645003.08745 2.05260005.08745.82170002 0 1.48335003-.0198 1.98825004-.05775.50490001-.03795.89595002-.11055 1.17150003-.2112.2739-.10725.47685001-.2508.59895001-.4323.12375-.1782.22275-.4026.29700001-.66825l2.34630002-7.2270002h13.8831003l2.4849001 7.4250002c.0792.24915.17325.4455.2871.6006.1155.1518.3168.27225.6006.3531.2838.09075.6963.1452 1.24245.1749.54285.02805 1.2985501.0429 2.2704001.0429.93225 0 1.66815-.02475 2.2011-.0726.53295-.04785.90255-.16995 1.1154-.3696.2079001-.198.2821501-.4983.2244001-.89925-.0528-.40425-.1996501-.94545-.4290001-1.6302L22.8838505 2.24895005c-.11715-.35970001-.2574-.64845002-.4158-.85635002-.16335-.20625-.4257-.36630001-.80025-.47355001-.3729-.1023-.89265-.1683-1.5559501-.198-.66825-.02805-1.56255-.04125-2.6862-.04125-.97185 0-1.7539501.0132-2.3413501.04125zm2.2291501 7.18245015h.0297l5.2239001 15.71460033H12.0846003l5.2288501-15.71460033z"/>
  </defs>
  <g fill="none" fill-rule="evenodd">
    <path fill="#DF3318" d="M32.2980907 19.6251554l-2.8198501 1.33155-.70125.7012501c-5.4334501 2.13675-5.9416501.9999-11.9311502 3.5112l-2.8050001.7029001-3.5112001 1.4025h-1.40745l-1.40085003.70125H4.91139011l-2.10375005.70125h-.70125001l-1.39920003.1584-.0066-1.5609L.29964 25.3259055l.40095-.858V23.0604555l-.69960001-.6996v-1.4041501l1.40085003-.70125h2.81160006c2.33310005-1.4586 2.96505007.0792 6.31620011-2.1087h4.2124501l.6996-.6996h.7029l1.4041501-.70125 2.10705-.7045501.70125-.70125h1.4025001l2.10705-.6996c1.7803501-1.96845 4.6101001-2.2143 7.0207502-2.8099501l1.40085-.70125 1.40745-.70125.6996-.70455h.6996001l2.1087-2.10375004h.7029l1.4025001-.69960002.70125-.70620001 3.50955-2.80500007h.7045501v-.70455001l.69795-.70290002 1.41075.70290002v.70455001l.94545.45045001 1.0791 1.08240003 1.6219501 1.48335003.56265 1.19460003v.70125001l-1.4091.70125002-1.4008501 1.40580001-2.10375 2.1054001-1.40415.6996-1.4074501 1.40745-1.40415.6996-2.8050001 1.4058001-3.51285 1.40085-.6996001.70455-2.10705.6996.0099.07425z"/>
    <g transform="translate(22.55 .42031)">
      <mask id="b" fill="#fff">
        <use xlink:href="#a"/>
      </mask>
      <path fill="#FBD016" d="M.69569501.432795l1.07910003-.1551s.97185002.39270001 1.62030003.35145001c.59730002-.03465 1.45860004-.49995 1.45860004-.49995l2.15490004.22935.60390001.36135c.47685002 0 .82170002-.3036 1.13685003-.36135.48015001-.0924.86625002.02805 1.46025001-.08085l.9933.11715.3795001-.11385.57255-.0033v.96690002l-.2409 1.40745003.32175 1.40745003c-.23925.87780002-.32175 1.57905003-.23925 2.46180005l-.33 1.75725004c.2475.52800001.2475.88110002.2475 1.40745003 0 .33824999.165.97019999.00825 1.14179999-.29865.31845-1.0428001 0-1.3084501 0-.22935 0-1.81665001.21285-2.05590001.22605-.28380001.01815.0297-.37125-.26565001-.3399-.46860001.0528-1.25565003.57915-1.73580004.64185-.96855002.12705-.88440002 0-1.78365004 0l-1.29360002-.26235-1.38435003-.00165-1.36125003.15345-.01485-.41745.24255-2.45850002c-.14355-.45705001-.0462-1.05105002-.1122-1.35960003-.12705-.58740001-.3399-.73425001-.3399-1.02135002 0-.43395001.231-.82005002.264-1.05600002.03135-.24585001-.1353-.33990001-.1353-.78540002 0-.61710001.64515001-.70455002.80850001-1.32165003L.69569501 1.52839503V.43279501z" mask="url(#b)"/>
    </g>
    <path fill="#7DB520" d="M30.6061807 22.1549355l.6996-2.1054001.18645-.62865 1.21935-.0726 2.5509001.1221.95865.57915.7029-.70125 2.8050001.70125.7062.70125-.7062 2.1054001v2.10705l-.6996001.7029v2.1054001l-.70125 3.5095501-.70455 1.4058-.6996 2.10375v2.1054001l-.7029.7029v1.4025l-.6996 2.1070501-.7029 1.40415-.7045501 2.1054001v.7029l-.6996.70455-.7029 2.80335-1.4058 2.1021001v.70455l-.6996 1.4058-.7029001.6963001v.70125l-.7029.70455v1.4058l-1.36125-.2277-1.6104-.13695-2.0328001.13695-2.44035-.13695-.9768-.33825-1.4454001-.2013.74415-1.20615.7012501-.70125v-.6963001l.70455-.7029.70125-2.10375.69795-1.4058001.7029-2.1054v-1.4025l1.4058-2.1070501.7012501-1.40085v-.70455l.70125-1.4025v-1.4041501l1.4025-2.10705v-2.1070501l.7029-.70125V30.5798357l.70125-1.4041501v-.70455h.7029v-.6996c.5296501-1.05435.4471501-4.1382001.7128001-5.7189001l-.0099.1023z"/>
    <path fill="#0360A8" d="M29.8392606 24.7733205l1.4074501.7029-.70455.9636001-.7078501.70785-.7029.8778-.5247 1.05435-.1782 1.23585-1.4058 2.8083001-1.40415 2.1054001-.6996001.70125-1.40415 2.1054-.7029.70455-.70125 1.4025001-.7062.7029-.6996001 2.1054v.70125l-1.4025.7029001-.7029.70125-1.4058 2.1054v.7029l-.70125.70125-1.4008501 1.4041501v.7029l-1.40745 2.1021-1.4025 2.1070501-.70125.6996-1.4041501-.6996h-.70289999l-2.10705005-.70455H5.96211013l-.70125002-.7012501-2.10540004-.70125-1.50480003-.5049.81180001-.6732.69300002-.924.70290001-.7029h.70290002l.69960001-.70125 1.40415003-2.1070501.70125002-.7029 1.23255003-1.41075 1.57740001-1.3959001.70125-1.4058 1.4041501-.69795.70125-.7029v-.7029l.70125-1.4025001 1.40745-1.40415v-1.4058l1.5790501-2.1136501 1.22595-2.09715.7029-.70125.7029-2.1070501.6996-.7029 1.4025001-2.1054v-.7012501l.7062-.6996v-.7062c.7887-.26235.29865-1.78695 1.00155-1.9602l1.8909.81015.6748501.6732 1.0824.4059 1.6698.4158 1.4091.4323z"/>
    <path fill="#FEFEFE" d="M5.95287013 60.9249863c.41250001.12705.82335002.30855 1.21275003.5379.39105.2343.71280001.5049.97515002.81345.26235.3003.40095001.6435001.43560001.9999001 0 .4224-.08250001.78705-.23100001 1.12035-.14685.3333-.33000001.6072-.54945001.8151-.21615001.2145-.42240001.3861-.63030001.49995.22935.8613.54945001 1.9156501.94050002 3.1614001.0231.0594.0231.10395.0231.1287 0 .1452-.07920001.2838-.22935001.41085-.1617.1155-.33165001.16995-.51480001.16995-.22935 0-.35640001-.09075-.40260001-.2607-.0792-.26235-.18315-.6303-.30690001-1.089-.12705-.4587-.25245-.90585-.3795-1.3282501-.11220001-.4257-.20625001-.71115-.25080001-.86955-.0594.01155-.264.02145-.63030001.05775-.60720002-.0363-1.12200003-.11715-1.53450004-.264-.03465.48015-.0693 1.03125-.09075 1.6384501.033.46695.0462.84645.0462 1.13025 0 .1617-.05775.28545-.1749.39105-.11385.1023-.23925001.1584-.38775001.16995-.30855001-.02145-.46860001-.1947-.49170001-.51315-.02145-.3102-.08085-.9042-.09405-1.7853001-.0099-.68805.0462-1.386.1056-2.1087.06765-.72105.1584-1.4223.28545001-2.1070501.1254-.6864.27555-1.30515.45870001-1.8315.09075-.26565.29865-.4026.63030001-.4026.14685 0 .28710001.03465.41085001.09075.1155.0462.1815.1155.1947.1848.36795001.02145.75405002.1056 1.17975003.23925m-1.96845004 3.7009501c.57255001.18315 1.08735002.28545 1.52130003.3102.51645001-.05775.96195002-.20625 1.33980003-.43725.37950001-.2277.56265001-.5742.56265001-1.01805 0-.2871-.1716-.561-.52800001-.8233501-.35475001-.26565-.76725002-.47025-1.23750003-.6435-.45540001-.16005-.82500002-.23925-1.09890002-.23925-.20460001.69795-.38940001 1.6500001-.55935001 2.8512001M13.1780553 62.7587964c.32835 0 .62865.04785.89265.13695.24915.0825.4917.2079.69795.3564.1947.1485.4125.3432.6171.5709.2178.2409.3894.41415.5049.5511.20625.24255.3085501.50325.3085501.7788 0 .21615-.0676501.4125-.2178001.5841-.13695.1716-.34485.2871-.60555.35475-.165.03465-.4356.0924-.80355.14685-.36465.0693-.69465.13695-1.01805.20625-.30855.06765-.6666.1848-1.07745.3333-.3993.14685-.80025.33495-1.2259501.5725501.19635.35475.4603501.6534.7936501.87285.33165.2145.69465.3762 1.0989.4686.40095.09075.82335.1584 1.26885.1584.50655 0 1.0758-.09075 1.7407501-.2277.15015 0 .2772.0561.37785.17985.10395.13035.16005.2673.16005.42735 0 .2508-.1122.3993-.33.4455-.6666001.13695-1.3068001.20295-1.9041001.20295-.81015 0-1.5807-.1452-2.28855-.4422-.7210501-.3003-1.3282501-.81345-1.8084001-1.5477-.01485.01155-.03465.0231-.0561.0231-.02475.0132-.04785.0231-.05775.0231-.09075 0-.19635-.08085-.29864998-.22935-.10395001-.1485-.16170001-.3003-.17160001-.4471501.0198-.16005.0792-.264.15840001-.3102-.06765001-.2145-.11385001-.4785-.13860001-.7887.01485-.45705.10725-.91575.26399999-1.3728.17325-.4587.4389-.85965.792-1.2144.35475-.3564.7887001-.594 1.3167001-.6996.41415-.0792.75735-.11385 1.0098-.11385m1.485 1.8909c-.1683-.2211-.3861-.4125-.67485-.58575-.27555-.1848-.59235-.2739-.9603-.2739-.30855 0-.594.066-.85965.1947-.27225.1221-.5016.297-.6979501.52635-.20625.21615-.3663.4686-.4818.75735-.1122.28545-.1749.5709-.1815.8679.0066.08085.02145.1716.02145.27555.8250001-.38775 1.5675001-.6633 2.2440001-.84645.1584-.0462.44715-.12705.84645-.22935.40095-.11715.6666-.18315.792-.21945.1155-.04455.1848-.066.1947-.0891 0-.04785-.0792-.17325-.24255-.37785M23.7887105 62.1641363c0 1.0048501.0924 1.8661501.1947 2.5657501.1023.4026.1584.6963.1584.9141 0 .20625-.033.42405-.1122.6765 0 .1155.02145.3531.06765.7293.04455.3712501.06765.6550501.06765.8613001 0 .4488-.22605.6864-.6963.73425-.17325-.03465-.3102-.10395-.37785-.21945-.08085-.1122-.1386-.27225-.1617-.4917-.2508.2508-.5973.45705-1.00815.63195-.42405.16005-.85965.24915-1.3167001.2607-.3762-.033-.65175-.0792-.8019-.11385-1.0164-.2607-1.69125-.9273-2.01465-1.9915501-.08085-.2739-.1584-.64185-.1716-1.09725-.01155-.5181.12705-1.0197.3564-1.52625.2178-.5049.5379-.91575.9504-1.23585.4125-.3201001.89265-.4801501 1.419-.4801501.20625 0 .5032501.033.8926501.1122.09405-.0792.19635-.1122.28545-.1122.3102 0 .6633.20625 1.056.6055501-.0231-.2854501-.04785-.5725501-.0693-.8464501-.02475-.28545-.03465-.5016-.04785-.65175.0132-.1155.0132-.20625.0231-.2871 0-.09405.0099-.16005.0099-.2178 0-.0693.01485-.15015.01485-.2508.0099-.1056.02145-.19635.02145-.3003.01155-.23925.08085-.4224.2079-.5478.1254-.1287.26235-.1815.4224-.1815.19635 0 .36465.06765.50325.1947.13695.1353.21945.3069.20625.51315-.01155.3102-.0792.89265-.0792 1.7523m-3.3544501 1.3167001c-.34485 0-.64185.1122-.8811.36795-.24255.23595-.42405.5379-.54945.90255-.1287.35475-.1848.7227-.1848 1.07745.04785.3432.17325.67815.3432.9834.1848.31185.40095.5610001.6765.7458001.264.18315.54945.2739.858.2739.1023001 0 .2062501-.01155.3085501-.03465.4125-.0924.792-.26235 1.12035-.5016001.3465-.2541.58905-.5412.726-.8844 0-.561-.07095-1.07415-.20625-1.54275-.0495 0-.0924.0099-.1386.0198-.18315-.033-.3333-.12705-.44715-.2739-.1254-.1386-.26235-.30855-.4125-.51645-.1617-.20625-.3069-.35145-.4554-.4257-.3003-.132-.5494501-.1914-.7573501-.1914M35.4981008 62.1641363c0 1.0048501.0924 1.8661501.1947 2.5657501.10395.4026.16005.6963.16005.9141 0 .20625-.033.42405-.1155.6765 0 .1155.0264.3531.0693.7293.0462.3712501.06765.6550501.06765.8613001 0 .4488-.22935.6864-.6963.73425-.1716-.03465-.30855-.10395-.37785-.21945-.08085-.1122-.1386-.27225-.1617-.4917-.2524501.2508-.5940001.45705-1.0065001.63195-.4224.16005-.858.24915-1.31835.2607-.3762-.033-.6534-.0792-.80025-.11385-1.0197-.2607-1.6945501-.9273-2.0163001-1.9915501-.0792-.2739-.1584-.64185-.16995-1.09725-.0132-.5181.1254-1.0197.3531-1.52625.2178-.5049.5379001-.91575.9504001-1.23585.4125-.3201001.89595-.4801501 1.419-.4801501.20625 0 .50325.033.8943.1122.09405-.0792.19635-.1122.2838-.1122.31185 0 .6666.20625 1.056.6055501-.0231-.2854501-.0429-.5725501-.06765-.8464501-.02145-.28545-.03465-.5016-.04455-.65175.0099-.1155.0099-.20625.0231-.2871 0-.09405.00825-.16005.00825-.2178 0-.0693.0132-.15015.0132-.2508.0099-.1056.02475-.19635.02475-.3003.0099-.23925.07755-.4224.20295-.5478.12705-.1287.2607001-.1815.4257001-.1815.1947 0 .36465.06765.50325.1947.13695.1353.2178.3069.2046.51315-.0099.3102-.0792.89265-.0792 1.7523m-3.3561001 1.3167001c-.34155 0-.6402.1122-.8811.36795-.23925.23595-.42405.5379-.54945.90255-.1287.35475-.1815.7227-.1815 1.07745.04455.3432.1716.67815.3399.9834.1848.31185.4026.5610001.67815.7458001.2607.18315.54945.2739.85965.2739.1023 0 .2046-.01155.3069-.03465.4125-.0924.79365-.26235 1.122-.5016001.34485-.2541.58575-.5412.7227-.8844 0-.561-.0693-1.07415-.20625-1.54275-.04785 0-.0924.0099-.13695.0198-.18315-.033-.3333-.12705-.44715-.2739-.1254-.1386-.2607-.30855-.4125-.51645-.1617-.20625-.30855-.35145-.4587-.4257-.29865-.132-.54945-.1914-.7557-.1914M40.7526909 62.7587964c.33165 0 .62865.04785.891.13695.25245.0825.49335.2079.6996.3564.19635.1485.4125.3432.61875.5709.2145.2409.3861.41415.50325.5511.2046.24255.3102.50325.3102.7788 0 .21615-.07095.4125-.2211.5841-.13695.1716-.34155.2871-.60555.35475-.16005.03465-.4356.0924-.80025.14685-.3663.0693-.69795.13695-1.01805.20625-.3102.06765-.66495.1848-1.08075.3333-.39765.14685-.7986.33495-1.2226501.5725501.19635.35475.4570501.6534.7920001.87285.33165.2145.69465.3762 1.09725.4686.40095.09075.82335.1584 1.27215.1584.50325 0 1.07415-.09075 1.7391-.2277.1518001 0 .2772001.0561.3778501.17985.1056.13035.1617.2673.1617.42735 0 .2508-.11715.3993-.33495.4455-.6633001.13695-1.3035001.20295-1.8991501.20295-.8118 0-1.5807-.1452-2.29185-.4422-.7177501-.3003-1.3249501-.81345-1.8051001-1.5477-.01155.01155-.03795.0231-.06105.0231-.02145.0132-.04455.0231-.0561.0231-.0891 0-.1947-.08085-.297-.22935-.10395-.1485-.16335-.3003-.17325-.4471501.0264-.16005.0792-.264.1617-.3102-.0693-.2145-.11385-.4785-.1353-.7887.0099-.45705.10065-.91575.2607-1.3728.17325-.4587.43725-.85965.792-1.2144.3531-.3564.7854-.594 1.3134001-.6996.41415-.0792.75735-.11385 1.01145-.11385m1.48335 1.8909c-.1683-.2211-.38445-.4125-.67485-.58575-.2739-.1848-.59235-.2739-.96195-.2739-.3069 0-.59235.066-.858.1947-.27225.1221-.5016.297-.6963001.52635-.2046.21615-.3663.4686-.48015.75735-.1155.28545-.17325.5709-.18315.8679.0099.08085.02145.1716.02145.27555.8266501-.38775 1.5691501-.6633 2.2456501-.84645.15675-.0462.44715-.12705.8481-.22935.3993-.11715.66165-.18315.7887-.21945.11385-.04455.1848-.066.19305-.0891 0-.04785-.0792-.17325-.24255-.37785M50.9491961 62.3349113c.1386.13695.29865.2508.49335.3432.2046.0808501.4455.1716001.74415.2623501.29865.0957.4818.1485.5478.1848.4818001.18315.8712001.40095 1.1797501.64185.3102.25245.54945.5148.71115.78045.1716.2607.2871.52635.34485.7887.05775.24915.0891.49005.0891.7326 0 .4125-.05445.7689-.1683 1.0527-.10725.2739001-.3234.5395501-.63195.7672501-.1155.0792-.2739.2409-.4686.4488-.1947.21615-.3432.37455-.46035.49005-.11385.10395-.2739001.20625-.4818001.30855-.2145.09405-.4554.1617-.74415.1617-.7656.01155-1.45035-.1749-2.06085-.5049-.6039-.33165-1.0989-.80025-1.48665-1.39755-.0462-.0693-.0693-.1468501-.0693-.2524501 0-.1221.0561-.2376.18315-.3432.12705-.099.2508-.14685.40095-.14685.16005 0 .264.05445.33165.1617.264.3993.6303.7177501 1.089.9916501.45705.26565.9042.4158 1.3266.4158.2541 0 .47025-.08085.65175-.19635.198-.12705.4257-.32175.6897001-.5973.264-.2706001.41085-.4224001.4455-.4570501.2541-.2508.3795-.5577.3795-.91245 0-.25245-.07095-.5049-.2079-.77055-.13695-.24915-.36795-.5016-.6732-.7557-.3234001-.23925-.7243501-.46695-1.2160501-.67485-.10065-.04455-.2937-.1122-.5973-.2046-.2937-.10395-.5478-.2046-.7524-.3102-.20625-.10065-.4026-.2376-.5643-.41415-.15675-.16995-.26235-.3894001-.31845-.6402001 0-.0792-.0132-.1815-.0462-.33.01155-.3828.1287-.68805.3432-.92895.2178-.2409.5049-.4125.84975-.52635.33-.1056.68475-.1617 1.06425-.1617.53625 0 1.1319.10395 1.8084001.3003.09075.02145.13695.1122.13695.2838 0 .1485-.03465.29865-.11385.44715-.0825.13695-.1716.21945-.28875.231-.18315-.0693-.4323001-.14685-.7408501-.21945-.3102-.066-.61875-.1023-.9174-.1023-.2871 0-.5148.04785-.69795.13695-.1848.09075-.28545.2277-.3102.42075 0 .19635.06765.35805.20625.495M62.6747564 69.4924465c-.10395 0-.19635-.02475-.27555-.0561-.0693-.0462-.1386001-.0957-.1716001-.1617-.0495-.0561-.0924-.1386-.1287-.2178-.033-.0792-.0693-.18315-.1155-.297-.28545.27225-.6501.4917-1.09725.6534-.4488.1584-.9174.23925-1.386.23925-.57255 0-1.0626-.11715-1.4751-.35475-.2772-.1617-.5395501-.42405-.7920001-.74415-.25245-.33165-.45705-.6765-.6072-1.05435-.1485-.3679501-.231-.6847501-.2409-.9619501.0231-.22935.0693-.39105.11715-.4686.08745-.15015.1914-.3663.30855-.6864.10395-.3102.23925-.57255.3993-.7788.14685-.20625.41085-.4125.7656001-.62865.4488-.26565.97515-.4026 1.56915-.4026h.33495c.12705-.12375.2475-.1947.37455-.20625.2739 0 .63195.1386 1.0296.42405l.09405-.3795c.033-.12375.09405-.2277.2079-.3069.1122-.08085.2376-.1155.39765-.1155.1749 0 .3465001.05775.5181001.1617.15675.1023.2376.23925.2376.3993 0 .12375-.03135.30855-.09075.5379-.0462.2409-.07755.4125-.09075.51645.0132.1716.04455.3201.08085.44715.0363.1254.09075.3102.16995.5709.08085.26235.13695.48015.1815.65505.03795.1815.06105.3531.06105.5379 0 .13365-.0363.43395-.1056.8679001.0561.1353.1287.3432.20955.6072.07755.27555.1221.51315.1221.7326 0 .1386-.0198.22935-.06765.27555-.1353.12375-.3201.1947-.5346.1947m-.9867001-2.7489001c0-.4026-.11385-.88275-.35475-1.45365-.03465-.1254-.11715-.19305-.231-.19305-.02475 0-.07755.01155-.1716.0198-.0792.0132-.1485.0231-.2079.0363-.12375-.04455-.2739-.11385-.4587-.2409-.1782-.1155-.32835-.1947-.43395-.25245-.11055-.0561-.23925-.08085-.3993-.08085-.2046 0-.4125.04785-.6303.12705-.2277.08085-.42075.20625-.594.3663-.16995.1617-.29865.34155-.3663.54945-.02145.066-.0693.1617-.14025.2739-.0792001.11715-.1353001.20625-.1666501.28875-.03795.06765-.0594.15675-.07095.2739.033.09075.0429.1584.0429.1947.3349501 1.3167001.9883501 2.0031001 1.9503001 2.0163001.4356 0 .8679-.15015 1.2672-.40095.41415-.2541.6798-.5181.80355-.77715.10065-.2211001.1617-.4620001.1617-.7474501M66.4131614 62.0159663c0 .6996001.02475 1.3497001.08085 1.9453501.0462.59565.1254 1.24905.2277 1.9701.1056.7227.1848001 1.2111.2178001 1.4965501.0363.2904.05775.58575.05775.88275 0 .231-.03465.41415-.1006501.561-.0693.13695-.20625.2211-.41415.24255-.1716-.01155-.31845-.08085-.46695-.20625-.1419-.12375-.2079-.26235-.2079-.42405 0-.31845-.0693-.891-.2046-1.7391001-.13695-.8481-.24255-1.6038-.3234-2.25555-.0792-.66495-.14685-1.43055-.13695-2.3017501.0099-.4917.03465-.8481.04785-1.07745 0-.231.06765-.4026.17985-.52635.11715-.11385.25245-.17325.4125-.17325.1848 0 .34485.0594.47025.16335.1254.09075.1848.22935.1848.37455-.0099.4356-.02475.792-.02475 1.06755M74.5776916 69.4924465c-.10395 0-.1947-.02475-.27555-.0561-.06765-.0462-.13695-.0957-.17325-.1617-.04455-.0561-.0891-.1386-.1254-.2178-.033-.0792-.06765-.18315-.11385-.297-.28875.27225-.65175.4917-1.0989.6534-.44715.1584-.9174.23925-1.3860001.23925-.5742 0-1.06425-.11715-1.4784-.35475-.2739-.1617-.5379-.42405-.79035-.74415-.24915-.33165-.45705-.6765-.60225-1.05435-.1518-.3679501-.2343-.6847501-.24255-.9619501.02475-.22935.06765-.39105.11385-.4686.0891-.15015.1947-.3663.3069-.6864.10725-.3102.24255-.57255.40095-.7788.15015-.20625.41415-.4125.7689-.62865.4455-.26565.9735-.4026 1.5675-.4026h.3349501c.12375-.12375.2508-.1947.37455-.20625.27555 0 .63195.1386 1.0329.42405l.0924-.3795c.03135-.12375.0891-.2277.2046-.3069.1122-.08085.2409-.1155.40095-.1155.17325 0 .34485.05775.5148.1617.1584.1023.2409.23925.2409.3993 0 .12375-.03465.30855-.09405.5379-.0429.2409-.07755.4125-.0891.51645.01155.1716.0462.3201.08085.44715.03465.1254.0891.3102.1716.5709.08085.26235.13695.48015.18315.65505.033.1815.05775.3531.05775.5379 0 .13365-.03465.43395-.10395.8679001.0561.1353.1254.3432.2079.6072.07755.27555.1221.51315.1221.7326 0 .1386-.0198.22935-.0693.27555-.1353.12375-.3168.1947-.5346.1947m-.98505-2.7489001c0-.4026-.11715-.88275-.35475-1.45365-.03465-.1254-.1155-.19305-.22935-.19305-.0264 0-.0792.01155-.17325.0198-.0792.0132-.1485.0231-.2046.0363-.12705-.04455-.2772-.11385-.46035-.2409-.1815-.1155-.33-.1947-.4356-.25245-.1122-.0561-.2376001-.08085-.3993001-.08085-.20625 0-.4125.04785-.6303.12705-.2277.08085-.42405.20625-.594.3663-.1749.1617-.29865.34155-.36795.54945-.0231.066-.066.1617-.1353.2739-.08085.11715-.14025.20625-.17325.28875-.033.06765-.05445.15675-.066.2739.033.09075.0429.1584.0429.1947.33165 1.3167001.98505 2.0031001 1.947 2.0163001.4356001 0 .8695501-.15015 1.2721501-.40095.41085-.2541.67485-.5181.8019-.77715.10065-.2211001.16005-.4620001.16005-.7474501M77.9196017 64.0639464c.14025.08085.3597.1716.6435.264.27555.10065.4455.16005.50325.18315.5049.1947.93885.4587 1.28205.79035.35475.32175.6105001.6534.7788001.9966.16335.33165.2541.61875.2409.84645-.0099.2409001-.0561.4339501-.11385.5841001-.0693.1485-.2409.33165-.5016.5379-.0709501.05775-.1980001.16005-.3465001.32175-.16005.1716-.28545.29535-.3894.3762-.1023.09405-.23925.1716-.4125.24255-.1584.0792-.3663.11385-.58245.11385-1.26225 0-2.19945-.4686-2.79675-1.4091-.03465-.06765-.0462-.11385-.0462-.1617 0-.13695.0693-.2607.2079-.3762.1353-.1254001.27225-.1815001.3993-.1815001.1056 0 .1749.033.2178.0924.19635.2937001.46035.5461501.792.7540501.3201.2046.6402.30855.96195.32175.1947-.0132.36465-.07095.5148-.16335.1353-.09075.30855-.22935.4884-.4125.18645-.17985.3234-.30855.42735-.3861.0825-.0726.1155-.1633501.1155-.2755501 0-.1848-.09405-.4026-.27555-.65505-.18645-.2508-.42405-.49335-.72105-.7095-.29865-.21615-.5973-.39105-.9174-.49005-.1815-.0726-.3762-.1386-.594-.2079-.20625-.08085-.39105-.1716-.54945-.27225-.1617-.1056-.28545-.23265-.3795-.39105-.1023-.1617-.1485-.35475-.1485-.5841 0-.35475.1254-.6534.3663-.89265.2541-.2293501.61875-.3795001 1.11375-.4026001.3399-.0099.77715.0231 1.2804.06765.4917.0363.8349.09405 1.01805.1518001.05775.02145.0924.11385.0924.27555 0 .13695-.03465.28545-.1023.43395-.07095.14685-.15015.21615-.22935.21615-.05775 0-.2178-.02145-.45705-.0693-.25575-.033-.48015-.06765-.6996-.10065-.2178-.02145-.42405-.03465-.61875-.03465-.5049 0-.7557.0924-.7788.28875 0 .12375.0693.22605.21615.3168M93.373832 61.5567713c0 .1386-.05775.25245-.16005.34485-.1122.10065-.24915.1584-.4224.16995-.1617-.03465-.2739-.0561-.3201-.09075-.3762-.20625-.6666-.35475-.8481-.4356-.19305-.08085-.4587-.11385-.7788-.11385-.1023 0-.19305.0099-.2508.0099-.26235.0231-.58245.1617-.9504001.4224-.36465.2673-.7095.58575-1.0098.9751501-.297.37785-.4785.73425-.55935 1.06425-.0825.36795-.1485.74745-.16005 1.14675-.01155.4917.09075.93885.264 1.3266.1584.39105.3762.7095.6402.9636001.27555.25245.561.4356.88275.54945.5478001.20625 1.3035001.31845 2.2440001.30855.30855 0 .52635-.0462.65175-.12705.13695-.0792.29865-.21615.4818-.40095.1947-.1716.37785-.29535.55935-.3663001.12705-.033.2178-.0462.28875-.0462.2079 0 .38775.0693001.5247.1947001.1518001.12705.2178001.28875.2178001.48345 0 .22935-.1270501.4422-.3547501.6633-.6072.561-1.4619.84645-2.57565.84645-.8943 0-1.8430501-.1716-2.8396501-.54945-.3003-.11055-.5742-.3069-.825-.55935-.26235-.25245-.4818-.561-.67485-.92895-.1947-.3580501-.35805-.7425001-.4587-1.1682001-.1056-.4224-.18315-.8712-.1716-1.3266.01155-.45705.05775-.792.0924-1.0098.0792-.4323.25245-.858.5016-1.2919501.2541-.42405.56265-.81345.9405-1.16985.3663-.3432.77055-.6171 1.21275-.82335.4356-.20625.8827501-.3069 1.3282501-.3069.58575 0 1.30515.22605 2.1648.70785.25245.13695.36465.3201.36465.5379M97.1749371 64.7293914c-.01155.58245.0561 1.1319.1254 1.6467.0792.5049.20625.9273.35475 1.2507001.16005.31845.3432.5016.57255.52635.33165 0 .6204-.0924.86955-.28875.2409001-.1947.4356001-.4224.5841001-.6715501.13695-.2541.22935-.48345.28875-.68805 0-.02475.0329998-.28875.0775498-.792.0462-.5016.09405-.8712.1386-1.1088.0231-.1056.1815-.1617.47025-.1617.1947 0 .3564.02475.48015.0693.1254.04455.1947.10395.1947.1716-.03465.35475-.0792.7557-.1254 1.188-.0462.4257-.08085.8151-.1056 1.1583-.02145.3547501-.05775.7111501-.05775 1.0989001.0132.66495.05775 1.1583.1056 1.5015 0 .0792-.1353.11385-.42405.11385-.15015 0-.297-.0099-.42405-.03465-.1254-.00825-.20625-.0462-.21945-.0792-.07755-.2079-.1105498-.5841-.1105498-1.14675-.25245.3333-.5082.56265-.75735.6765-.2508001.12705-.5164501.1815-.7903501.1815h-.3102c-.54945-.06765-.9834-.33-1.3035-.7755-.3069-.4587-.53955-.9867-.6534-1.6170001-.1254-.6171-.19635-1.26885-.19635-1.97175 0-.43065.0363-.8679.0825-1.30515.03465-.42075.05445-.627.05445-.59235.0495-.12375.14025-.21945.27555-.28545.1386-.08085.27555-.1138501.42405-.1138501.3333 0 .495.1369501.495.4240501-.04785.33165-.10395.8811-.1155 1.62525M104.704712 63.7207464c.68805-.34155 1.37445-.5148 2.05095-.5148.40095 0 .76725.06765 1.09725.1947.33495.14025.59895.3333.8151.60555.2178.27555.3531.6204.4125 1.02135.0099.1023.0198.26235.0198.4917 0 .19305-.0099.5379-.0429 1.04445.0231.36135.0891.6732.1815.9273001.1056.27225.16335.5016.16335.66165 0 .2079-.05775.37785-.1716.50325-.13035.1353-.2772.20295-.46035.2178-.64185-.0693-1.0296-.7326-1.0296-1.9932001 0-.6633.05775-1.12365.04785-1.36125 0-.3432-.1287-.6303-.3597-.85965-.21615-.2178-.5115-.3432-.891-.33165-.54945.01155-1.0989.22935-1.6599.60555.0462.57585.0693 1.353.0693 2.35125 0 .8448001-.0231 1.3596001-.0693 1.5427501-.0462.19635-.23925.3069-.5841.3333-.1716-.0132-.33165-.05775-.4587-.1287-.1353-.0792-.21615-.17325-.2046-.27225.0792-1.07745.1386-1.8348001.1386-2.2555501 0-.29865-.0132-.67815-.0495-1.12035-.0891 0-.1914-.03795-.29535-.11715-.10395-.0693-.16005-.16995-.17325-.30855.0231-.18315.1056-.3696.24255-.561-.0132-.0231-.05775-.15015-.15015-.39105-.1023-.2277-.15015-.41085-.16005-.52635.0198-.1716.1023-.33165.2178-.48015.12705-.1386.27555-.2178.44715-.2178.1947 0 .3531.0693.4917.231.19305.21615.3069.4587.36465.70785M116.921808 69.4924465c-.10395 0-.1947-.02475-.27555-.0561-.06765-.0462-.13695-.0957-.1716-.1617-.0462-.0561-.0891-.1386-.12705-.2178-.03135-.0792-.066-.18315-.11385-.297-.2838.27225-.65175.4917-1.098901.6534-.44715.1584-.91575.23925-1.38435.23925-.5742 0-1.0659-.11715-1.47675-.35475-.2739-.1617-.53955-.42405-.79035-.74415-.2541-.33165-.4587-.6765-.6072-1.05435-.15015-.3679501-.2277-.6847501-.23925-.9619501.0198-.22935.066-.39105.11385-.4686.0891-.15015.1914-.3663.3069-.6864.10395-.3102.2409-.57255.3993-.7788.15345-.20625.41415-.4125.77055-.62865.4455-.26565.97185-.4026 1.5675-.4026h.33165c.1287-.12375.25245-.1947.3795-.20625.27555 0 .62865.1386 1.027951.42405l.0924-.3795c.033-.12375.0924-.2277.2046-.3069.1188-.08085.2409-.1155.4026-.1155.1716 0 .34485.05775.51645.1617.1584.1023.23925.23925.23925.3993 0 .12375-.033.30855-.09405.5379-.0429.2409-.07755.4125-.0891.51645.01155.1716.0462.3201.08085.44715.03465.1254.0924.3102.1716.5709.0825.26235.13695.48015.1815.65505.03465.1815.0594.3531.0594.5379 0 .13365-.03465.43395-.10395.8679001.05775.1353.1254.3432.2079.6072.07755.27555.12375.51315.12375.7326 0 .1386-.02145.22935-.06765.27555-.1386.12375-.31845.1947-.5379.1947m-.9867-2.7489001c0-.4026-.1122-.88275-.3531-1.45365-.03465-.1254-.11385-.19305-.22935-.19305-.024751 0-.080851.01155-.169951.0198-.0825.0132-.1518.0231-.20955.0363-.12375-.04455-.27225-.11385-.4554-.2409-.1815-.1155-.33165-.1947-.43395-.25245-.1155-.0561-.2442-.08085-.40095-.08085-.2079 0-.41415.04785-.63195.12705-.2277.08085-.42405.20625-.594.3663-.17325.1617-.29865.34155-.3663.54945-.0231.066-.06765.1617-.13695.2739-.0825.11715-.1386.20625-.17655.28875-.0297.06765-.0528.15675-.066.2739.0363.09075.04455.1584.04455.1947.33495 1.3167001.98835 2.0031001 1.94865 2.0163001.43395 0 .8712-.15015 1.26885-.40095.410851-.2541.676501-.5181.803551-.77715.1023-.2211001.1584-.4620001.1584-.7474501M127.601763 64.6505214c-.19305.41085-.4257.891-.6996 1.4289-.264.54945-.49335.99495-.6633 1.3497001-.1848.35475-.32175.65505-.4224.8844.09075.11385.13695.27555.13695.4719 0 .1914-.0462.35145-.15015.4884-.1023.1485-.22935.21945-.38775.21945-.1254.2508-.30195.56925-.50325.98175-.20955.4125-.34815.67485-.39105.77055-.0462.0792-.15015.12375-.30855.12375-.14025 0-.26565-.04455-.3795-.1584-.12375-.10395-.1947-.231-.20295-.39105.00825-.0132.00825-.04455.01815-.09075.0132-.04785.0132-.08085.0231-.09405.0825-.2145.2442-.5478.48015-1.02795.2343-.47025.3696-.7458.4125-.8481-.2937-.2508-.54945-.53625-.76725-.84645-.2145-.30855-.3861-.6402001-.54945-.9735001-.1485-.3432-.3069-.7557-.49005-1.23585-.16995-.48345-.30855-.8481-.4224-1.0989-.0132-.0495-.0231-.08085-.03795-.11715-.01155-.03135-.02145-.0792-.033-.1386 0-.15675.07095-.2838.20625-.3993.13695-.10065.297-.1584.4587-.1584.2871 0 .4686.1122.5643.34155.066.1848.1683.48345.3036.8712.12705.4026.24255.7194.34485.98505.09405.2508.21615.51645.35475.77715.1518.27555.32175.51975.5181.7326001 1.00485-2.1879001 1.6236-3.6201001 1.82985-4.2933001.0693-.2046.2508-.30855.5643-.30855.1815 0 .33.04455.4686.1386.13695.09075.20625.20625.20625.3531 0 .0099 0 .0363-.01485.0693-.01155.0363-.01155.05775-.01155.066-.11055.3333-.2574.7128-.4554 1.12695M137.042403 62.9295714c.15015.8481.26565 1.4454.30855 1.79025.06105.35475.0825.8217.0825 1.4157 0 .4125-.0924.84975-.264 1.3167001-.1617.46035-.44715.84975-.825 1.1814-.3762.3201-.858.48015-1.4322.48015-.29535 0-.6039-.0561-.93885-.1716-.3432-.1155-.58245-.24915-.7194-.41085-.3564-.4026-.53955-.8844-.53955-1.4338501 0-.33.05775-.62865.1584-.891.1188-.264.31185-.3993.58905-.3993.1683 0 .3069.0528.40755.1683.11715.12705.16335.264.16335.43725 0 .11385-.03465.25245-.11715.4356-.06765.1815-.1122.3102-.12375.3663.01155.2145001.12375.3993001.33165.5709001.20295.1716.4455.2541.72105.2541.3069 0 .57255-.07095.7788-.21945.20625-.15015.3795-.39105.4917-.6979501.12705-.32175.19635-.7227.22935-1.20285.01155-.1023.01155-.23925.01155-.42405 0-.35475-.0231-.6864-.04455-.97185-.03465-.2871-.09405-.6666-.17325-1.1352-.08085-.46695-.1254-.8481001-.1617-1.1121001-.03135-.2739-.0561-.60225-.06765-1.00485-.0132-.264.04785-.4818.1485-.6435.09405-.1584.2079-.2376.32175-.2376.20625 0 .3201.1353.3432.4125.0561.57255.1617 1.29195.3201 2.1268501M145.308573 69.4924465c-.1023 0-.1947-.02475-.27225-.0561-.07095-.0462-.1419-.0957-.1749-.1617-.04455-.0561-.09075-.1386-.12705-.2178-.03135-.0792-.0693-.18315-.1122-.297-.28545.27225-.6534.4917-1.0989.6534-.4488.1584-.91905.23925-1.38435.23925-.5775 0-1.0659-.11715-1.4784-.35475-.27555-.1617-.53955-.42405-.79035-.74415-.25245-.33165-.46035-.6765-.6072-1.05435-.15015-.3679501-.22935-.6847501-.2442-.9619501.02805-.22935.0726-.39105.11715-.4686.09075-.15015.19635-.3663.3102-.6864.10395-.3102.2409-.57255.40095-.7788.1485-.20625.4125-.4125.76395-.62865.4488-.26565.97515-.4026 1.56915-.4026h.33495c.12705-.12375.2508-.1947.3795-.20625.2739 0 .62865.1386 1.02795.42405l.0924-.3795c.033-.12375.0924-.2277.20625-.3069.1155-.08085.2376-.1155.40095-.1155.1716 0 .3432.05775.5148.1617.16005.1023.2409.23925.2409.3993 0 .12375-.03465.30855-.09405.5379-.0429.2409-.07755.4125-.0891.51645.01155.1716.0462.3201.0792.44715.03465.1254.09075.3102.17325.5709.0792.26235.13695.48015.17985.65505.0363.1815.0594.3531.0594.5379 0 .13365-.033.43395-.1023.8679001.05775.1353.1254.3432.20625.6072.07755.27555.12375.51315.12375.7326 0 .1386-.0231.22935-.066.27555-.1386.12375-.32175.1947-.53955.1947m-.98835-2.7489001c0-.4026-.1089-.88275-.35145-1.45365-.03465-.1254-.1155-.19305-.2277-.19305-.0231 0-.08085.01155-.16995.0198-.08415.0132-.1518.0231-.20625.0363-.1287-.04455-.27885-.11385-.46035-.2409-.17985-.1155-.33-.1947-.43395-.25245-.1155-.0561-.2409-.08085-.40095-.08085-.20625 0-.4125.04785-.6303.12705-.22935.08085-.4257.20625-.5973.3663-.1749.1617-.29865.34155-.36795.54945-.0198.066-.066.1617-.13695.2739-.07755.11715-.1353.20625-.1683.28875-.03795.06765-.05775.15675-.0693.2739.03135.09075.0462.1584.0462.1947.32835 1.3167001.9834 2.0031001 1.947 2.0163001.4323 0 .8679-.15015 1.27215-.40095.40755-.2541.67155-.5181.80025-.77715.10065-.2211001.1551-.4620001.1551-.7474501M148.706913 63.1358214c.0231.1155.0429.264.08085.44715.02145.16995.033.2871.0462.3201.2508-.297.5709-.59565.95865-.87945.3795-.29865.792-.4818001 1.2243-.5742001.12705 0 .21945.06765.3003.1947.0693.1369501.10395.2854501.10395.4587001 0 .23925-.0693.36795-.198.4026-.2277.05775-.49995.2145-.82335.44385-.33165.2178-.627.48015-.90255.79035-.27555.29865-.4455.5709-.51315.83655 0 .5148-.0363.92895-.12705 1.2375-.0561.1947-.09405.3861-.1155.5709001-.01155.1947-.0231.43395-.0231.73425 0 .297-.01155.5379-.0231.70785-.0099.17655-.16005.27555-.47025.3102-.30855-.03465-.49005-.1155-.55935-.26235-.0231-.04785-.04785-.28545-.0693-.7227.03465-.67485.0693-1.1434501.09075-1.4074501 0-.1023-.01155-.28545-.04455-.55935.033-.4026.1023-.7458.22935-1.03125-.04785-.5643-.13695-1.2507-.27555-2.05095 0-.1023.0693-.1947.20625-.2739.13695-.0825.28545-.1155.4455-.1155.20625 0 .33495.05445.3795.16005.0231.0561.05775.1419.0792.26235M158.449008 62.1641363c0 1.0048501.0924 1.8661501.1947 2.5657501.10395.4026.16005.6963.16005.9141 0 .20625-.033.42405-.11385.6765 0 .1155.02145.3531.06765.7293.0462.3712501.07095.6550501.07095.8613001 0 .4488-.231.6864-.6996.73425-.1716-.03465-.3102-.10395-.37785-.21945-.0792-.1122-.1386-.27225-.1584-.4917-.25575.2508-.5973.45705-1.01145.63195-.4224.16005-.85635.24915-1.31505.2607-.37785-.033-.6534-.0792-.8019-.11385-1.0197-.2607-1.6929-.9273-2.0163-1.9915501-.0792-.2739-.16005-.64185-.17325-1.09725-.01155-.5181.1287-1.0197.35805-1.52625.2178-.5049.5379-.91575.9504-1.23585.4092-.3201001.89265-.4801501 1.42065-.4801501.20625 0 .50325.033.891.1122.0924-.0792.198-.1122.2871-.1122.3102 0 .6633.20625 1.05435.6055501-.02145-.2854501-.0462-.5725501-.07095-.8464501-.0231-.28545-.033-.5016-.04455-.65175.01155-.1155.01155-.20625.02145-.2871 0-.09405.0132-.16005.0132-.2178 0-.0693.0099-.15015.0099-.2508.0132-.1056.02475-.19635.02475-.3003.01155-.23925.08085-.4224.20625-.5478.1254-.1287.26235-.1815.4224-.1815.1947 0 .3663.06765.5049.1947.13695.1353.2178.3069.20625.51315-.01155.3102-.08085.89265-.08085 1.7523m-3.3528 1.3167001c-.34485 0-.64185.1122-.88275.36795-.2409.23595-.4224.5379-.5511.90255-.1254.35475-.18315.7227-.18315 1.07745.04455.3432.1716.67815.3465.9834.1815.31185.39765.5610001.6732.7458001.264.18315.5478.2739.85965.2739.10065 0 .2046-.01155.3069-.03465.4125-.0924.7887-.26235 1.12365-.5016001.3432-.2541.58575-.5412.7227-.8844 0-.561-.0693-1.07415-.2079-1.54275-.0462 0-.0891.0099-.1386.0198-.1815-.033-.32835-.12705-.4455-.2739-.1254-.1386-.26565-.30855-.4125-.51645-.1584-.20625-.3069-.35145-.4587-.4257-.29535-.132-.54945-.1914-.7524-.1914M162.443494 63.7900464c0 .264-.02475.5148-.0594.7656-.04455.24255-.1122.561-.19305.96195-.0924.40095-.16005.71115-.1947.9405-.04785.2277-.06765.46695-.06765.7095 0 .08085.03465.2392501.08085.4587001.0561.2178.0792.38775.0792.5016 0 .15015-.0693.27555-.1947.38115-.1386.0891-.2871.14685-.457051.1584-.5412-.0561-.8151-.4818-.84645-1.2705.00825-.2640001.0792-.6880501.17985-1.2507001.0924-.56925.16005-.94875.1947-1.14345.033-.1947.04785-.44715.04785-.7458 0-.1485-.02475-.40095-.04785-.77715-.0099-.28545.0693-.5016.19635-.6501.13365-.1501501.29535-.2194501.478501-.2194501.26565 0 .4488.0924.5511.2640001.16995.27555.25245.5841.25245.91575m.02145-2.8644001c0 .3003-.03465.5379-.1155.7128-.07755.1716-.2508.28545-.5148.34155-.10065 0-.20625-.0561-.31845-.16995-.115501-.1155-.206251-.2541-.275551-.40425-.0792-.1485-.1122-.2607-.1122-.3432 0-.10065.05445-.2145.16665-.33165.11715-.12375.254101-.2178.425701-.29535.1617-.0792.29865-.1254.4257-.1254.02145 0 .0561 0 .0924.00825.0198.01155.04455.01155.04455.01155.1254.0363.1815.22935.1815.59565M165.727324 63.7207464c.68805-.34155 1.3728-.5148 2.05095-.5148.3993 0 .7656.06765 1.0989.1947.33.14025.5973.3333.8118.60555.21615.27555.3531.6204.4125 1.02135.01155.1023.02145.26235.02145.4917 0 .19305-.0099.5379-.04455 1.04445.0231.36135.09075.6732.18315.9273001.1056.27225.16005.5016.16005.66165 0 .2079-.05445.37785-.17325.50325-.1254.1353-.27225.20295-.4554.2178-.64185-.0693-1.03125-.7326-1.03125-1.9932001 0-.6633.05775-1.12365.0462-1.36125 0-.3432-.12705-.6303-.35475-.85965-.21615-.2178-.51645-.3432-.8943-.33165-.5478.01155-1.09725.22935-1.6599.60555.0462.57585.0693 1.353.0693 2.35125 0 .8448001-.0231 1.3596001-.0693 1.5427501-.04785.19635-.2409.3069-.58575.3333-.16995-.0132-.33165-.05775-.45375-.1287-.13695-.0792-.2211-.17325-.20625-.27225.07755-1.07745.13695-1.8348001.13695-2.2555501 0-.29865-.01485-.67815-.04785-1.12035-.0891 0-.19305-.03795-.29535-.11715-.1056-.0693-.1617-.16995-.17325-.30855.02145-.18315.10395-.3696.24255-.561-.0132-.0231-.06105-.15015-.1518-.39105-.10395-.2277-.1485-.41085-.16005-.52635.02145-.1716.1056-.33165.2178-.48015.12705-.1386.2739-.2178.4455-.2178.1947 0 .35475.0693.49335.231.1947.21615.30855.4587.3663.70785M175.217959 62.7587964c.3333 0 .62865.04785.891.13695.2541.0825.495.2079.70125.3564.19305.1485.41085.3432.61545.5709.2211.2409.39105.41415.5049.5511.20625.24255.30855.50325.30855.7788 0 .21615-.066.4125-.2178.5841-.1353.1716-.34155.2871-.6039.35475-.16005.03465-.43725.0924-.80025.14685-.3696.0693-.7029.13695-1.02465.20625-.3069.06765-.66165.1848-1.07415.3333-.40095.14685-.80025.33495-1.2243.5725501.1947.35475.45705.6534.79035.87285.33165.2145.6996.3762 1.0989.4686.40095.09075.825.1584 1.2705.1584.5016 0 1.0758-.09075 1.7391-.2277.1518 0 .2772.0561.3795.17985.10395.13035.15675.2673.15675.42735 0 .2508-.1089.3993-.32835.4455-.66495.13695-1.30515.20295-1.9008.20295-.8118 0-1.57905-.1452-2.2902-.4422-.72105-.3003-1.32825-.81345-1.8084-1.5477-.01155.01155-.0363.0231-.05775.0231-.0198.0132-.0462.0231-.05445.0231-.09735 0-.19965-.08085-.3003-.22935-.1023-.1485-.16005-.3003-.16995-.4471501.02145-.16005.0792-.264.1584-.3102-.0693-.2145-.1155-.4785-.13695-.7887.01155-.45705.10395-.91575.264-1.3728.1716-.4587.4323-.85965.78705-1.2144.3564-.3564.792-.594 1.31835-.6996.4125-.0792.75735-.11385 1.00815-.11385m1.48665 1.8909c-.1716-.2211-.3894-.4125-.6732-.58575-.27555-.1848-.5973-.2739-.9636-.2739-.30855 0-.59565.066-.858.1947-.2739.1221-.50325.297-.69795.52635-.2046.21615-.36795.4686-.48345.75735-.11385.28545-.16995.5709-.1815.8679.01155.08085.0231.1716.0231.27555.82335-.38775 1.5675-.6633 2.244-.84645.16005-.0462.44715-.12705.8481-.22935.40095-.11715.6633-.18315.7887-.21945.1155-.04455.18315-.066.1947-.0891 0-.04785-.0792-.17325-.2409-.37785M181.329889 64.0639464c.1353.08085.35475.1716.6402.264.27555.10065.44715.16005.5049.18315.5016.1947.9405.4587 1.28205.79035.35475.32175.6072.6534.78045.9966.16005.33165.2508.61875.23925.84645-.0132.2409001-.0594.4339501-.1155.5841001-.06765.1485-.2409.33165-.50325.5379-.0693.05775-.1947.16005-.3432.32175-.16005.1716-.2871.29535-.38775.3762-.10725.09405-.2442.1716-.41415.24255-.1617.0792-.36795.11385-.58575.11385-1.2573 0-2.1978-.4686-2.7918-1.4091-.033-.06765-.0462-.11385-.0462-.1617 0-.13695.0693-.2607.2079-.3762.13365-.1254001.27555-.1815001.3993-.1815001.10395 0 .1716.033.21945.0924.1914.2937001.4554.5461501.78705.7540501.32175.2046.64185.30855.9603.32175.19635-.0132.3696-.07095.5181-.16335.13695-.09075.30855-.22935.49335-.4125.1815-.17985.31845-.30855.4224-.3861.08085-.0726.11385-.1633501.11385-.2755501 0-.1848-.0891-.4026-.2739-.65505-.1848-.2508-.42405-.49335-.7227-.7095-.297-.21615-.594-.39105-.91575-.49005-.18315-.0726-.3795-.1386-.59565-.2079-.2046-.08085-.38775-.1716-.54945-.27225-.1584-.1056-.28545-.23265-.3762-.39105-.10395-.1617-.15015-.35475-.15015-.5841 0-.35475.1254-.6534.36795-.89265.2508-.2293501.61545-.3795001 1.1088-.4026001.34485-.0099.7788.0231 1.2804.06765.49335.0363.83985.09405 1.02135.1518001.05775.02145.09075.11385.09075.27555 0 .13695-.033.28545-.10065.43395-.07095.14685-.15015.21615-.231.21615-.0561 0-.21615-.02145-.4554-.0693-.2541-.033-.4818-.06765-.6996-.10065-.21945-.02145-.42405-.03465-.62205-.03465-.5016 0-.75405.0924-.77715.28875 0 .12375.0693.22605.21945.3168M193.453429 61.2247913c0 .16005-.0363.3003-.11385.40095-.07095.11385-.16335.17325-.27555.17325-.2178-.02475-.41415-.0363-.57255-.0363-.15015 0-.4125.0363-.81345.1023 0 2.0064001.05775 4.0078501.1815 6.0241502.3102.04455.8382.11385 1.5939.1947.1023.01155.1848.06765.23925.16995.06765.1056.09405.2409.09405.39105 0 .1584-.0363.297-.1188.4125-.066.1155-.16995.17325-.2838.17325-.54945-.05775-1.0329-.11715-1.43055-.1617-.40095-.0594-.8481-.12705-1.34145-.2178-.48015-.09075-.9504-.20625-1.3959-.3432-.23925-.0693-.35475-.2541-.35475-.53955 0-.16995.04455-.3333.13695-.45705.0891-.1155.2178-.1848.37785-.1848.1254 0 .2508.0132.37785.0495.11385.03135.28545.0759.48345.1353.20295.0693.3399.1023.4092.12375-.0099-.4339501-.0231-.8349001-.0231-1.2012001-.01155-.36465-.0231-.6501-.0231-.86955.0231-1.39755.0462-2.5509.0462-3.4699501-.0792 0-.14685.0132-.1947.0231-.2508-.0099-.47025-.08085-.6402-.2079-.1749-.11055-.2541-.2937-.2541-.53625 0-.1386.0363-.24915.10395-.35475.0693-.1023.17325-.16335.297-.16335.0726 0 .16005.0132.29865.05115.13695.0198.21945.04125.24255.04125.1122 0 .2607-.0099.45705-.04125.19305-.03795.3762-.0594.54945-.09405.1716-.03465.33165-.05775.48015-.066.16005-.02475.3201-.03795.48015-.03795.32175 0 .58575.03795.8019.10395.12705.03465.1848.1716.1848.4125M196.531009 63.7207464c.68805-.34155 1.3728-.5148 2.05095-.5148.3993 0 .7656.06765 1.09725.1947.3333.14025.594.3333.81345.60555.21615.27555.35475.6204.4125 1.02135.0099.1023.02145.26235.02145.4917 0 .19305-.01155.5379-.04455 1.04445.0231.36135.09075.6732.18315.9273001.1023.27225.1584.5016.1584.66165 0 .2079-.0561.37785-.1683.50325-.1287.1353-.2772.20295-.4587.2178-.6435-.0693-1.0329-.7326-1.0329-1.9932001 0-.6633.05775-1.12365.0462-1.36125 0-.3432-.1254-.6303-.3531-.85965-.21945-.2178-.51645-.3432-.8943-.33165-.54945.01155-1.0989.22935-1.6599.60555.04785.57585.0693 1.353.0693 2.35125 0 .8448001-.02145 1.3596001-.0693 1.5427501-.0462.19635-.2409.3069-.5841.3333-.1716-.0132-.33165-.05775-.4587-.1287-.13695-.0792-.2178-.17325-.20625-.27225.08085-1.07745.13695-1.8348001.13695-2.2555501 0-.29865-.0099-.67815-.04455-1.12035-.0924 0-.19305-.03795-.29865-.11715-.1023-.0693-.1584-.16995-.1716-.30855.0231-.18315.10395-.3696.23925-.561-.0066-.0231-.0561-.15015-.14685-.39105-.10065-.2277-.1485-.41085-.16005-.52635.02145-.1716.10395-.33165.21615-.48015.1287-.1386.2739-.2178.45045-.2178.1914 0 .35145.0693.49005.231.1947.21615.3069.4587.3663.70785M206.949934 60.7784663c0 .1254-.02475.2409-.07095.3465-.0561.10065-.11385.14685-.19305.14685-.3432.01155-.6996.08085-1.06755.2178-.3762.1485-.594.35145-.66165.62865-.02145.10395-.0462.29535-.08085.5973001.0099.10065.02145.26235.0594.4686.02145.21615.03135.37785.0462.4884.11385-.02145.2277-.0429.3432-.07755.1122-.0231.22605-.04455.35145-.05445.11715-.0264.2178-.03795.2871-.03795.3432 0 .51645.1848.51645.561 0 .1914-.0693.3333-.1947.4125-.12705.08085-.32175.15015-.5742.20625-.2508.0561-.4224.1056-.5016.1353.01155.17655.0231.4521.0231.82665 0 .4587-.0363.9273-.0924 1.419-.05775.4818001-.14025.9141001-.22935 1.3134001-.09075.4158-.19635.726-.28545.9438-.07095.16005-.2178.23925-.47025.23925-.1518 0-.27555-.04455-.37785-.12375-.10065-.0957-.16005-.20625-.16005-.36795.0099-.11385.08085-.4224.2046-.93885.1155-.5148.20625-.9718501.2871-1.3860001.07095-.41415.10395-.8019.10395-1.188 0-.1617 0-.27885-.0132-.35805-.04455.02145-.13695.0792-.2739.1617-.13695.07755-.24915.1485-.3432.18315-.09075.033-.18315.0561-.27555.0561-.1254-.01155-.22935-.0561-.30855-.14685-.0792-.08415-.1254-.19635-.13695-.3201.033-.3927.4125-.7458 1.1319-1.06755-.01155-.1023-.0363-.2079-.0462-.3168-.02145-.11715-.04455-.2211-.0561-.3234-.0231-.1023-.03465-.2277-.0594-.37785-.0099-.15015-.02145-.28875-.03135-.4125001.02145-.33165.06765-.6171.13695-.86955.09075-.3234.28875-.5973.561-.825.26235-.231.5841-.4125.94875-.528.36795-.1122.74745-.16995 1.122-.16995.2541 0 .38115.1815.38115.5379M213.99956 69.4924465c-.1023 0-.19305-.02475-.27555-.0561-.06765-.0462-.13365-.0957-.1716-.1617-.0429-.0561-.09075-.1386-.1254-.2178-.033-.0792-.07095-.18315-.1122-.297-.28875.27225-.65505.4917-1.0989.6534-.4488.1584-.9207.23925-1.38765.23925-.57255 0-1.0626-.11715-1.4751-.35475-.27555-.1617-.53955-.42405-.792-.74415-.2508-.33165-.45705-.6765-.60555-1.05435-.1518-.3679501-.23265-.6847501-.2409-.9619501.0231-.22935.06765-.39105.11385-.4686.0891-.15015.19635-.3663.3069-.6864.1056-.3102.2442-.57255.40095-.7788.1485-.20625.41415-.4125.7689-.62865.44715-.26565.9735-.4026 1.56585-.4026h.33495c.12705-.12375.25245-.1947.37785-.20625.2772 0 .63195.1386 1.0296.42405l.0924-.3795c.03465-.12375.09075-.2277.20625-.3069.11385-.08085.2409-.1155.4026-.1155.1683 0 .34155.05775.5148.1617.16005.1023.23925.23925.23925.3993 0 .12375-.03465.30855-.09405.5379-.04455.2409-.07755.4125-.0891.51645.01155.1716.04455.3201.0792.44715.03465.1254.09405.3102.17325.5709.0792.26235.13695.48015.17985.65505.0363.1815.0594.3531.0594.5379 0 .13365-.033.43395-.1023.8679001.0528.1353.12705.3432.20625.6072.08085.27555.1221.51315.1221.7326 0 .1386-.0198.22935-.06435.27555-.13695.12375-.32175.1947-.53955.1947m-.98505-2.7489001c0-.4026-.1122-.88275-.35475-1.45365-.03465-.1254-.1122-.19305-.22605-.19305-.0264 0-.08085.01155-.1749.0198-.08085.0132-.1485.0231-.2079.0363-.1221-.04455-.27225-.11385-.45375-.2409-.1848-.1155-.3333-.1947-.4389-.25245-.1122-.0561-.2376-.08085-.3993-.08085-.20625 0-.4125.04785-.62865.12705-.22935.08085-.4257.20625-.59565.3663-.17325.1617-.3003.34155-.37125.54945-.01815.066-.066.1617-.1353.2739-.07755.11715-.13695.20625-.1683.28875-.03465.06765-.05775.15675-.0693.2739.03465.09075.04455.1584.04455.1947.32835 1.3167001.9867 2.0031001 1.94865 2.0163001.4323 0 .86955-.15015 1.2672-.40095.4125-.2541.6798-.5181.8052-.77715.10065-.2211001.1584-.4620001.1584-.7474501M217.77641 63.7207464c.68805-.34155 1.37445-.5148 2.05095-.5148.39765 0 .76725.06765 1.09725.1947.3333.14025.59565.3333.8118.60555.21945.27555.35475.6204.4125 1.02135.0132.1023.02475.26235.02475.4917 0 .19305-.01155.5379-.0429 1.04445.01815.36135.0858.6732.1815.9273001.1023.27225.1584.5016.1584.66165 0 .2079-.0561.37785-.1716.50325-.1254.1353-.27555.20295-.45705.2178-.6435-.0693-1.03125-.7326-1.03125-1.9932001 0-.6633.0561-1.12365.04455-1.36125 0-.3432-.1254-.6303-.35475-.85965-.21615-.2178-.5148-.3432-.89265-.33165-.5511.01155-1.10055.22935-1.6599.60555.04455.57585.0693 1.353.0693 2.35125 0 .8448001-.02475 1.3596001-.0693 1.5427501-.0462.19635-.23925.3069-.5841.3333-.1716-.0132-.3333-.05775-.4587-.1287-.13695-.0792-.2178-.17325-.2046-.27225.07755-1.07745.13365-1.8348001.13365-2.2555501 0-.29865-.0066-.67815-.04455-1.12035-.0891 0-.19305-.03795-.29535-.11715-.10395-.0693-.16005-.16995-.17325-.30855.0264-.18315.1056-.3696.24255-.561-.0099-.0231-.0594-.15015-.15015-.39105-.10395-.2277-.1485-.41085-.1617-.52635.0264-.1716.1056-.33165.21945-.48015.1254-.1386.27555-.2178.4455-.2178.19635 0 .35475.0693.4917.231.19635.21615.31185.4587.36795.70785M225.581735 62.4025613c.04785.01155.1056.02475.16005.02475.0594.01155.1056.01155.12705.02145.13695-.0099.32175-.05775.55935-.1386.23265-.0891.3696-.1353.4026-.1452.1023 0 .16995.0561.22935.1584.06765.10395.0891.23925.0891.3910501 0 .264-.12375.44385-.37455.5379-.23925.09075-.5478.14685-.90585.16005-.0561-.0132-.1386-.0231-.21945-.0231 0 .561-.0198 1.3398-.06765 2.34795-.033 1.0065-.06765 1.7160001-.06765 2.1301501.0099.11055.0231.29865.0231.53625 0 .0924-.05775.17325-.16995.22935-.11715.06105-.25575.0924-.41415.10395-.29535-.03465-.43395-.10395-.4455-.22935-.01155-.27555-.05775-.6303-.0693-1.0659-.0132-.4224001.0231-1.0428001.0693-1.8562501.04455-.81015.06765-1.4058.06765-1.77375v-.58245c-.3663-.1155-.7788-.1716-1.24905-.1716-.24255 0-.36465-.1617-.36465-.4950001 0-.1815.0462-.30855.1452-.3762.1056-.0561.25245-.09075.46035-.09075.3564 0 .65175.03465.8943.11385-.0363-.48015-.1716-1.10055-.40095-1.881 0-.1353.06765-.2376.20625-.3168.1353-.0825.29535-.11385.4686-.11385.1947 0 .30855.04455.33495.13695.2508.858.4323 1.64835.5115 2.36775M230.459135 63.7900464c0 .264-.0231.5148-.05775.7656-.04785.24255-.1155.561-.1947.96195-.09075.40095-.1584.71115-.19305.9405-.04785.2277-.06765.46695-.06765.7095 0 .08085.033.2392501.0792.4587001.05445.2178.08085.38775.08085.5016 0 .15015-.07095.27555-.19635.38115-.1386.0891-.28545.14685-.45705.1584-.5412-.0561-.81345-.4818-.8481-1.2705.0132-.2640001.0792-.6880501.18315-1.2507001.09075-.56925.1584-.94875.1947-1.14345.03465-.1947.04455-.44715.04455-.7458 0-.1485-.0231-.40095-.04455-.77715-.0132-.28545.066-.5016.19305-.6501.13695-.1501501.29865-.2194501.4818-.2194501.264 0 .4488.0924.54945.2640001.1716.27555.25245.5841.25245.91575m.02145-2.8644001c0 .3003-.033.5379-.11385.7128-.08085.1716-.2508.28545-.5148.34155-.10065 0-.20625-.0561-.31845-.16995-.11715-.1155-.20625-.2541-.27555-.40425-.0825-.1485-.11385-.2607-.11385-.3432 0-.10065.05445-.2145.1683-.33165.11715-.12375.2541-.2178.4257-.29535.1617-.0792.297-.1254.4224-.1254.02475 0 .0561 0 .09075.00825.02475.01155.0495.01155.0495.01155.12375.0363.17985.22935.17985.59565M233.71079 62.0159663c0 .6996001.02145 1.3497001.08085 1.9453501.0429.59565.1254 1.24905.2277 1.9701.1023.7227.1815 1.2111.2145 1.4965501.0363.2904.06105.58575.06105.88275 0 .231-.03465.41415-.1056.561-.06765.13695-.2046.2211-.41085.24255-.1716-.01155-.32175-.08085-.4686-.20625-.13695-.12375-.2046-.26235-.2046-.42405 0-.31845-.07095-.891-.20955-1.7391001-.13695-.8481-.23925-1.6038-.31845-2.25555-.08085-.66495-.1485-1.43055-.1386-2.3017501.0099-.4917.0363-.8481.04785-1.07745 0-.231.06765-.4026.1782-.52635.1188-.11385.25575-.17325.41415-.17325.1848 0 .34485.0594.4686.16335.12705.09075.1848.22935.1848.37455-.01155.4356-.02145.792-.02145 1.06755M239.603435 62.7587964c.3333 0 .6303.04785.89265.13695.2541.0825.495.2079.70125.3564.19305.1485.41085.3432.6171.5709.2178.2409.3894.41415.5049.5511.20625.24255.3069.50325.3069.7788 0 .21615-.066.4125-.21615.5841-.13695.1716-.34155.2871-.60555.35475-.16005.03465-.43725.0924-.8019.14685-.36795.0693-.6996.13695-1.0197.20625-.3102.06765-.66495.1848-1.07745.3333-.3993.14685-.8019.33495-1.22595.5725501.19635.35475.4587.6534.79035.87285.3333.2145.6996.3762 1.0989.4686.4059.09075.82665.1584 1.27215.1584.50325 0 1.0758-.09075 1.7424-.2277.1485 0 .27225.0561.3762.17985.10395.13035.1584.2673.1584.42735 0 .2508-.1122.3993-.33165.4455-.66495.13695-1.30515.20295-1.89915.20295-.81345 0-1.5807-.1452-2.2902-.4422-.72105-.3003-1.3266-.81345-1.81005-1.5477-.00825.01155-.03135.0231-.05775.0231-.0198.0132-.0462.0231-.05445.0231-.09405 0-.19635-.08085-.3003-.22935-.10065-.1485-.1584-.3003-.16995-.4471501.02145-.16005.07755-.264.16005-.3102-.06765-.2145-.1122-.4785-.1386-.7887.01155-.45705.1056-.91575.26235-1.3728.17325-.4587.4356-.85965.792-1.2144.35475-.3564.79035-.594 1.3167-.6996.4125-.0792.75405-.11385 1.0065-.11385m1.4916 1.8909c-.17325-.2211-.3927-.4125-.67815-.58575-.2739-.1848-.594-.2739-.96195-.2739-.30855 0-.594.066-.858.1947-.27555.1221-.50325.297-.69795.52635-.20625.21615-.36795.4686-.48015.75735-.11715.28545-.17325.5709-.1848.8679.01155.08085.0231.1716.0231.27555.825-.38775 1.5708-.6633 2.24565-.84645.1584-.0462.4455-.12705.84645-.22935.40095-.11715.6633-.18315.7887-.21945.11715-.04455.1848-.066.19635-.0891 0-.04785-.0792-.17325-.23925-.37785M245.945705 64.0639464c.13695.08085.35475.1716.64185.264.2739.10065.44715.16005.5049.18315.49995.1947.9372.4587 1.28205.79035.3531.32175.60555.6534.77715.9966.1617.33165.25245.61875.2409.84645-.01155.2409001-.0594.4339501-.11385.5841001-.06765.1485-.24255.33165-.5049.5379-.0693.05775-.19305.16005-.34485.32175-.1584.1716-.28215.29535-.3861.3762-.1056.09405-.24255.1716-.4125.24255-.16005.0792-.3696.11385-.58575.11385-1.2606 0-2.19945-.4686-2.7951-1.4091-.033-.06765-.0429-.11385-.0429-.1617 0-.13695.066-.2607.2046-.3762.14025-.1254001.27555-.1815001.40095-.1815001.1023 0 .1716.033.21945.0924.1914.2937001.4554.5461501.78705.7540501.3201.2046.64185.30855.96525.32175.18975-.0132.36465-.07095.5148-.16335.1353-.09075.3069-.22935.4884-.4125.18645-.17985.3234-.30855.4257-.3861.0792-.0726.1155-.1633501.1155-.2755501 0-.1848-.0924-.4026-.27555-.65505-.18315-.2508-.4224-.49335-.72105-.7095-.297-.21615-.59565-.39105-.91575-.49005-.18315-.0726-.37785-.1386-.5973-.2079-.20625-.08085-.38775-.1716-.54945-.27225-.1617-.1056-.28545-.23265-.37785-.39105-.1023-.1617-.1485-.35475-.1485-.5841 0-.35475.1254-.6534.36465-.89265.2541-.2293501.62205-.3795001 1.1121-.4026001.34485-.0099.78045.0231 1.28205.06765.49335.0363.8382.09405 1.023.1518001.0561.02145.0891.11385.0891.27555 0 .13695-.033.28545-.10065.43395-.07095.14685-.15345.21615-.2343.21615-.05445 0-.2145-.02145-.4554-.0693-.25245-.033-.4818-.06765-.69795-.10065-.2178-.02145-.42405-.03465-.61875-.03465-.50325 0-.7557.0924-.77715.28875 0 .12375.06765.22605.21615.3168M52.7054561 55.3547512c0 .18975-.0627.36135-.18645.5148-.12375.15345-.32835.27555-.6138.3729-.28545.0957-.6666.1716-1.1418.22605-.4752.05775-1.0857.08745-1.8282.08745-.7243501 0-1.3299001-.0297-1.8150001-.08745-.4851-.05445-.8712-.13035-1.1583-.22605-.2838-.09735-.4884-.21945-.61215-.3729-.1254-.15345-.18645-.32505-.18645-.5148V20.4473504c0-.18975.06105-.36135.18645-.5148.12375-.1518.3333-.2739.62865-.37125.2937-.09405.67815-.16995 1.155-.2277.4785-.05775 1.07745-.0858 1.8018001-.0858.7425 0 1.353.02805 1.8282.0858.4752.05775.85635.13365 1.1418.2277.28545.09735.49005.21945.6138.37125.12375.15345.18645.32505.18645.5148v34.9074008z"/>
    <g transform="translate(44.550001 18.57031)">
      <mask id="d" fill="#fff">
        <use xlink:href="#c"/>
      </mask>
      <path fill="#FBD016" d="M9.2206952 29.3673606H-.157905l.0594 8.6823002h9.3769502z" mask="url(#d)"/>
    </g>
    <g fill="#FEFEFE">
      <path d="M87.8550767 53.7545808c0 .4389-.07755.82995-.22935 1.1715-.15345.3432-.35805.6303-.6154501.858-.2574.22935-.561.39435-.9108.5016-.3531.10065-.70785.1551-1.07415.1551h-3.1977001c-.66825 0-1.24245-.066-1.7292-.198-.4851-.1353-.9339-.37785-1.3431-.7326-.41085-.3498-.8052001-.8283-1.1830501-1.42395-.38445-.60225-.8118-1.3777501-1.28865-2.3314501l-9.20205019-17.2821004c-.53130001-1.02795-1.07580002-2.13675-1.62690003-3.3264-.55275001-1.1880001-1.04940002-2.3463001-1.48665003-3.4699501h-.0594c.0792 1.3695.13365 2.7373501.17655 4.1002501.03465 1.36125.05445 2.76375.05445 4.2108001v19.3396504c0 .18975-.05115.36135-.16005.51315-.10230001.15015-.28380001.2838-.53955001.3861-.25575001.1056-.60555002.18645-1.04280003.24255-.43890001.05775-.99990002.0858-1.68465003.0858-.66825002 0-1.21935003-.02805-1.65660004-.0858-.44055001-.0561-.78375002-.13695-1.02795002-.24255-.24915-.1023-.42240001-.23595-.51645001-.3861-.09405-.1518-.14355-.3234-.14355-.51315V22.10428008c0-.89265002.264-1.56585004.78705001-2.01300005.52140001-.44715001 1.16490003-.67155001 1.92885004-.67155001h4.02600009c.72435002 0 1.33485003.06105 1.83150004.18645.49335001.12375001.93390002.32670001 1.32495001.61380002.3894.2838.75735.68145001 1.10055 1.18635002.3432.50490001.6930001 1.12695003 1.0576501 1.86945004l7.2022501 13.5135003c.41745.8184.83325 1.62525 1.24245 2.41395.4108501.7903501.8068501 1.5823501 1.1880001 2.3710501.3762.79035.7491 1.5642 1.1121 2.32815.363.7623001.7128 1.5229501 1.056 2.2852501h.03135c-.0561-1.33485-.10065-2.7225001-.1287-4.1695501-.03135-1.4487-.04455-2.8297501-.04455-4.1431501V20.53348004c0-.18975.06105-.36300001.17325-.51480001s.3036-.28545.5709-.39930001c.2673-.11385.61875-.19305 1.0543501-.2409.43725-.0495 1.00155-.07425 1.6896-.07425.6435 0 1.18635.02475 1.62525.07425.44055.04785.77715.12705 1.0147501.2409.23595.11385001.40425.24750001.49995.39930001.09405.1518.14355.32505001.14355.51480001V53.7545808zM120.1379874 22.50622009c0 .55110001-.0231 1.02300002-.07095 1.41405003-.04785.3894-.1155.70455001-.21285.94215002-.0957.2376-.2145.41415001-.35805.52800001-.1435501.1155-.2970001.1716-.4702501.1716h-9.2565002V55.3544208c0 .1914-.0627.363-.1848.5148-.12375.1518-.32835.27555-.61545.3729-.2838.0957-.67155.16995-1.15665.22605-.48675.05775-1.0923.0858-1.81335.0858-.7260001 0-1.3299001-.02805-1.8133501-.0858-.4884-.0561-.8712-.13035-1.1583-.22605-.2871-.09735-.4917-.2211-.6138-.3729-.12375-.1518-.18645-.3234-.18645-.5148V25.56202015h-9.2565002c-.1914 0-.3531-.0561-.4851-.1716-.132-.11385-.24585-.29040001-.3432-.52800001-.0924-.23760001-.16335-.55275002-.2145-.94215002-.0462-.39105001-.07095-.86295002-.07095-1.41405003 0-.57420002.02475-1.05765003.07095-1.45860004.05115-.3993.1221-.71775001.2145-.95535002.09735-.23925.2112-.41085001.3432-.51645001.132-.1023.2937-.1551.4851-.1551h26.0551505c.17325 0 .3267.0528.4702501.1551.14355.1056.26235.27720001.35805.51645001.09735.23760001.165.55605002.21285.95535002.04785.40095001.07095.88440002.07095 1.45860004"/>
    </g>
    <g transform="translate(91.850002 18.57031)">
      <mask id="f" fill="#fff">
        <use xlink:href="#e"/>
      </mask>
      <path fill="#0360A8" d="M9.1927002 38.0506508h9.3819002v-8.6889002H9.1927002z" mask="url(#f)"/>
    </g>
    <g fill="#FEFEFE">
      <path d="M146.1190535 53.4420708c0 .5511-.0231 1.01145-.0693 1.38435-.0495.36795-.1188.6732-.2145.9009-.0957.2244-.21615.396-.35805.4983-.1452.1056-.29865.15675-.4719.15675h-18.56910044c-.63030002 0-1.15335003-.18645-1.58730004-.5577-.42405-.3696-.64020001-.9735-.64020001-1.81335V21.79177007c0-.83820002.21615-1.44375003.64020001-1.81500004.43395001-.37125001.95700002-.55605001 1.58730004-.55605001h18.45690044c.16995 0 .32175.0462.4554.1419.132.0957.2475.26235001.34155.49995001.09735.23925001.1683.54450001.2178.91575002.04455.36795001.07095.84315002.07095 1.41240003 0 .53460001-.0264.98505002-.07095 1.35795003-.0495.37125001-.12045.66990002-.2178.89760002-.09405.22935001-.20955.39600001-.34155.50160001-.13365.1056-.28545.15675001-.4554.15675001h-13.19835033v9.02715015h11.16720023c.17325 0 .33.0528.47355.1584.14025.10395.26235.2673001.35805.4851001.09405.2211.16335.5148.21285.8877.04785.3696.07095.82005.07095 1.3563 0 .5511-.0231 1.00815-.07095 1.3695-.0495.36135-.1188.6534-.21285.8712001-.0957.21945-.2178.37785-.35805.47025-.14355.09735-.3003.14355-.47355.14355h-11.16720023v10.4280002h13.31055033c.17325 0 .3267.0528.4719.15675.1419.10395.26235.2706.35805.4983.0957.2277.165.52635.2145.8976.0462.3729.0693.8349.0693 1.3876501M180.6852342 25.16156514c0 .55110001-.0231 1.02795003-.07095 1.42725003-.0429.40095001-.11055.72105002-.198.95700002-.08745.23925001-.1914.40590001-.31515.50160002-.12375.09735-.27225.1419-.44385.1419-.2442 0-.64515-.16995001-1.19955-.51315001-.5511-.34485001-1.28535-.71445002-2.1994501-1.11375003-.91245-.39930001-2.00145-.77220001-3.2703-1.11540002-1.2655501-.34320001-2.7390001-.51480001-4.4137501-.51480001-1.7902501 0-3.4089001.3102-4.8559501.92895002-1.4454001.61875001-2.6829001 1.49655003-3.7125001 2.63010006-1.02795 1.13189998-1.8216001 2.49480008-2.3727001 4.08375008-.55275 1.5906-.8316 3.3462001-.8316 5.2701001 0 2.1153001.28215 3.9765001.84645 5.5869001.561 1.6071001 1.3464001 2.9551501 2.3578501 4.0392001 1.0065 1.08735 2.2209 1.9074001 3.6432001 2.4601501 1.41735.5511 2.9832.82665 4.6959001.82665.8382 0 1.6665-.0957 2.48655-.28545.81675-.1881 1.5807001-.4752 2.2836001-.858v-8.5701002h-6.9960002c-.3432 0-.61215-.2145-.8019-.64185-.18975-.42735-.28545-1.1583001-.28545-2.1862501 0-.5313.0231-.97845.07425-1.3398.04455-.36465.11385-.6534.2112-.87285.0957-.21945.20955-.38115.34485-.48675.132-.10395.2838-.15345.45705-.15345h12.4806003c.30855 0 .5808.0495.8184.15345.2376.1056.4455.264.627.4719.17985.2079.3201.462.41415.75735.0924.29535.1419.63195.1419 1.01475v14.7081003c0 .5709-.09735 1.0741501-.297 1.5015001-.20295.42735-.6138.7656-1.23255 1.01145-.61875.2508-1.3827.5049-2.2984501.77385-.9141.2673-1.86285.49335-2.8413.68475-.9801.1914-1.9701001.33165-2.9716501.42735-1.00155.0957-2.0031.14355-3.01455.14355-2.9502001 0-5.5935002-.4257-7.9249502-1.2705-2.3347501-.84645-4.3131001-2.07735-5.9301001-3.6861001-1.6186501-1.6071-2.8578001-3.5673001-3.7125001-5.8822501-.85965-2.3133001-1.2870001-4.9368001-1.2870001-7.8705002 0-3.0261.4570501-5.7453001 1.3728001-8.1543001.9141-2.4090001 2.2077-4.45665015 3.8824501-6.14460018 1.6764-1.68465004 3.70095-2.97330007 6.0753001-3.87090009 2.3694-.89430002 5.0094001-1.34145002 7.9233002-1.34145002 1.6005 0 3.05745.1089 4.3725001.32835 1.31505.2211 2.46345.48675001 3.4419.80025002.9801001.31350001 1.7952001.65175001 2.4403501 1.01475002.64845.36300001 1.10055.67485002 1.3596.94215002.2574.26730001.44055.64350002.55605 1.12695003.1155.48675001.16995 1.20615002.16995 2.15820004M212.7378049 55.4143158c0 .2079-.03795.38115-.11385.52635-.07425.14355-.25575.26235-.54285.35475-.2838.09735-.70455.165-1.2573.2013-.5511.0396-1.3035.0561-2.2555501.0561-.80025 0-1.43715-.0165-1.91565-.0561-.47355-.0363-.8514-.11055-1.1253-.2112-.2772-.10725-.47355-.23925-.5874-.40095-.1155-.16335-.2112-.3597-.2838-.58575l-3.3165001-8.2549502c-.3993-.9306-.79035-1.76055-1.16985-2.48655-.3778501-.7227001-.8035501-1.3266001-1.2705001-1.8100501-.46695-.48675-1.0065-.85305-1.61535-1.1022-.6105-.2475-1.3134-.3696-2.1136501-.3696h-2.343v14.0794503c0 .18975-.06105.36135-.18645.51315-.1221.1551-.32835.27555-.61215.37455-.2838.0957-.66825.1683-1.14345.22605-.4768501.05775-1.0873501.08415-1.8298501.08415-.7227 0-1.3266-.0264-1.81335-.08415-.4851-.05775-.8712-.13035-1.15665-.22605-.2854501-.099-.4834501-.21945-.6006001-.37455-.11385-.1518-.16995-.3234-.16995-.51315V21.79226507c0-.83820002.2145-1.44375003.6435-1.81665004.4273501-.36960001.9570001-.55440001 1.5840001-.55440001h9.5700002c.9735 0 1.7721.01815 2.40075.05445.6286501.0396 1.1995501.0858 1.7110501.14355 1.48995.21120001 2.82645.57255002 4.0144501 1.08570003 1.19295.51480001 2.20275 1.18635002 3.0294 2.01465004.82995.82995002 1.4619001 1.81005004 1.8991501 2.94360006.44055 1.13355003.6567 2.43210006.6567 3.89895005 0 1.2375001-.1551 2.3661001-.47025 3.3841501-.3135 1.0197-.77385 1.9288501-1.3843501 2.7274501-.6105.80025-1.3629 1.4982-2.2572 2.08725-.8943.58905-1.91565 1.06755-3.0574501 1.42725.55275.2673001 1.0708501.5890501 1.5559501.9718501.4884.3795.94545.84315 1.3728 1.386.429.54285.83325 1.1616 1.21275 1.85625.38115.6963001.75405 1.4817001 1.1154 2.3545501l3.1135501 7.2847501c.2871.7243501.47685 1.2507001.5709 1.5823501.09735.3366.1419.59895.1419.79035m-9.6822002-25.0833005c0-1.2160501-.27885-2.24400009-.8283-3.08385011-.55275-.83820002-1.4553-1.42890003-2.7142501-1.77210004-.3828-.09405-.8151-.1716-1.3002-.22935001-.4851-.05445-1.15665-.08415-2.0163-.08415h-3.3693001V35.6456654h3.8280001c1.0659 0 1.9998-.13035 2.80005-.38445.7986001-.2574 1.4668501-.6187501 1.9998001-1.0857001s.9339-1.02465 1.19955-1.67145c.26565-.64845.40095-1.37115.40095-2.17305"/>
    </g>
    <g transform="translate(184.800004 18.57031)">
      <mask id="h" fill="#fff">
        <use xlink:href="#g"/>
      </mask>
      <path fill="#DF3318" d="M-.1518 38.0506508h9.3802502v-8.6889002H-.1518z" mask="url(#h)"/>
    </g>
    <path fill="#FEFEFE" d="M248.807465 53.5838062c.231.68475.3762 1.2276.429 1.62855.05775.40095-.01815.70125-.2277.9009-.2112.198-.57915.3234-1.1154.3696-.5313.04785-1.26555.07095-2.19945.07095-.9702 0-1.72755-.01485-2.2704-.0396-.54285-.03135-.95535-.08745-1.24245-.1749-.28215-.08415-.4851-.2046-.6006-.35475-.1122-.1551-.2079-.3531-.28545-.60225l-2.4849-7.4233502h-13.8831l-2.34465 7.2253502c-.0759.26565-.1749.4917-.29865.6699-.1221.1815-.32505.3234-.59895.43065-.27555.10065-.66825.1749-1.1715.2112-.50655.0396-1.16655.05775-1.9866.05775-.87615 0-1.55925-.02805-2.0559-.0858-.49335-.0561-.8382-.1947-1.03125-.41415-.18975-.2178-.2541-.52965-.198-.9273.05775-.40095.198-.93225.429-1.59885l11.3982-32.7954008c.11715-.32175.2508-.58575.3993-.7854.15345-.19965.396-.3498.72765-.45705.33495-.1023.7953-.16995 1.3893-.19965.5874-.02805 1.37115-.04125 2.34135-.04125 1.122 0 2.01795.0132 2.68455.04125.66495.0297 1.1847.09735 1.55595.19965.37455.10725.6402.264.80025.4719.16005.20955.30195.49665.41415.8580001l11.42625 32.7640507zm-16.9653-27.1095006h-.0297l-5.22885 15.7146003h10.4841l-5.22555-15.7146003z"/>
    <g transform="translate(214.500005 18.57031)">
      <mask id="j" fill="#fff">
        <use xlink:href="#i"/>
      </mask>
      <path fill="#7DB520" d="M34.8471758 29.3803956H23.2328255l1.41075 8.6691002h11.6176503z" mask="url(#j)"/>
    </g>
  </g>
</svg>
